<?xml version="1.0" encoding="UTF-8"?>
<svg xmlns="http://www.w3.org/2000/svg" xmlns:xlink="http://www.w3.org/1999/xlink" width="675.128pt" height="309.457pt" viewBox="0 0 675.128 309.457">
<defs>
<clipPath id="clip-0">
<path clip-rule="nonzero" d="M 0.15625 4 L 344 4 L 344 259 L 0.15625 259 Z M 0.15625 4 "/>
</clipPath>
<clipPath id="clip-1">
<path clip-rule="nonzero" d="M 320 0 L 674.101562 0 L 674.101562 308.914062 L 320 308.914062 Z M 320 0 "/>
</clipPath>
</defs>
<g clip-path="url(#clip-0)">
<path fill="none" stroke-width="0.79701" stroke-linecap="butt" stroke-linejoin="miter" stroke="rgb(34.999084%, 34.999084%, 34.999084%)" stroke-opacity="1" stroke-miterlimit="10" d="M 56.693582 -0.00146314 L 57.315765 -0.00146314 L 45.361232 -0.00146314 L 39.350704 -10.375102 L 28.914455 -16.256498 M 45.361232 -0.00146314 L 34.075839 6.521682 L 33.645398 6.525595 M 45.361232 -0.00146314 L 35.734995 0.0337548 L 30.401434 0.0494072 L 28.738365 -2.865855 L 28.491839 -3.014553 M 30.401434 0.0494072 L 17.327753 7.558654 L 12.741595 7.546915 M 30.401434 0.0494072 L 26.856162 -6.000252 L 22.813925 -12.883402 L 23.41263 -13.928201 L 23.416543 -14.280381 M 22.813925 -12.883402 L 14.451621 -17.657389 L 9.560241 -26.176217 M 22.813925 -12.883402 L 11.074612 -19.602202 L 6.903243 -21.989196 L 6.860199 -31.670216 L 4.195375 -36.205504 M 6.903243 -21.989196 L 5.322349 -21.977457 L -0.0112119 -25.04533 M 30.401434 0.0494072 L 31.473625 -0.56495 L 26.7779 2.131179 L 19.722573 -2.004973 L 5.995403 -2.122366 M 26.7779 2.131179 L 19.448656 14.934856 L 8.761968 21.113647 M 26.7779 2.131179 L 25.17744 2.135092 L 11.786797 2.178136 L 6.128449 -7.538102 L -6.988277 -14.961261 M 11.786797 2.178136 L -0.328173 9.080852 L -10.467026 9.084765 M 30.401434 0.0494072 L 16.80731 -0.0523335 L 8.519355 -0.114943 L 4.852777 -6.411128 L 1.127501 -8.555509 M 8.519355 -0.114943 L 2.074473 3.614245 L -13.100546 3.751204 M 8.519355 -0.114943 L -0.926878 -0.0562466 L -6.863057 -0.0210287 L -7.285673 -0.737127 L -8.490909 -1.410181 M -6.863057 -0.0210287 L -16.411032 5.63732 L -21.361109 5.723408 M -6.863057 -0.0210287 L -12.4001 -9.45161 L -13.804904 -11.842517 L -13.343158 -12.644703 L -13.292288 -20.529608 M -13.804904 -11.842517 L -15.808414 -12.989056 L -15.604932 -12.636877 M -13.804904 -11.842517 L -23.368531 -17.434343 L -23.744189 -17.653476 L -23.740276 -19.050455 L -25.262474 -21.656582 M -23.744189 -17.653476 L -29.073837 -17.669129 L -31.4217 -19.030889 M -6.863057 -0.0210287 L -16.133201 5.519927 L -26.326838 11.608717 L -29.879937 9.636513 L -40.867933 9.820429 M -26.326838 11.608717 L -31.030389 19.736235 L -42.801007 26.458948 M -26.326838 11.608717 L -39.302692 11.753502 L -40.437492 11.765241 L -44.424945 4.886004 L -51.116353 1.102032 M -40.437492 11.765241 L -51.902887 18.425345 L -67.766612 18.589695 M -6.863057 -0.0210287 L -10.333981 -5.816336 L -13.640554 -11.333813 L -8.768739 -20.056122 L -8.827436 -23.996618 M -13.640554 -11.333813 L -26.162488 -18.459576 L -29.762543 -24.48967 M -13.640554 -11.333813 L -18.903679 -20.259604 L -20.83284 -23.538785 L -21.220237 -22.850079 L -21.294586 -27.717981 M -20.83284 -23.538785 L -31.961708 -29.799752 L -33.272598 -32.038048 M -20.83284 -23.538785 L -19.506297 -25.890561 L -15.917981 -32.245442 L -5.520863 -32.460663 L 8.088914 -40.666442 M -15.917981 -32.245442 L -15.996243 -46.254355 L -14.685353 -48.594392 M -15.917981 -32.245442 L -16.051026 -44.266498 L -16.176246 -55.669284 L -17.009737 -55.187972 L -11.050079 -65.592916 M -16.176246 -55.669284 L -22.92635 -67.209029 L -22.93809 -69.654719 M -20.83284 -23.538785 L -34.227395 -31.059772 L -39.717481 -34.143298 L -39.815308 -43.875188 L -45.379742 -53.200115 M -39.717481 -34.143298 L -44.22929 -34.127645 L -56.336434 -41.030361 M -39.717481 -34.143298 L -42.797094 -39.433815 L -48.177612 -48.68048 L -48.635445 -47.893946 L -48.631532 -48.214821 M -48.177612 -48.68048 L -57.549497 -54.158826 L -65.219181 -67.381205 M -20.83284 -23.538785 L -24.648116 -25.687079 L -27.445986 -27.26406 L -27.477291 -32.065439 L -33.366512 -41.918636 M -27.445986 -27.26406 L -34.622619 -27.107536 L -39.920962 -30.01106 M -27.445986 -27.26406 L -27.762947 -27.44015 L -27.962515 -27.549717 L -28.040778 -35.06679 L -35.346543 -47.1935 M -27.962515 -27.549717 L -36.316993 -27.487107 L -50.239818 -35.391578 M -27.962515 -27.549717 L -28.142518 -37.254216 L -28.130779 -36.710294 L -23.27853 -39.660775 L -18.516282 -48.418302 M -28.130779 -36.710294 L -35.264368 -48.574826 L -35.260455 -48.426128 M -28.130779 -36.710294 L -34.947407 -48.179603 L -39.768351 -56.287555 L -36.090033 -62.900701 L -36.160469 -65.890312 M -39.768351 -56.287555 L -51.284617 -62.79896 L -53.405519 -66.395103 M -27.962515 -27.549717 L -26.761192 -27.549717 L -39.467042 -27.522325 L -46.428454 -39.829038 L -45.857141 -39.492511 M -39.467042 -27.522325 L -44.835821 -24.485756 L -48.639358 -24.517061 M -39.467042 -27.522325 L -51.386358 -34.3233 L -59.748661 -39.097288 L -59.869968 -49.979631 L -66.404852 -61.139804 M -59.748661 -39.097288 L -68.795758 -39.132506 L -78.778087 -44.943465 M -6.863057 -0.0210287 L -12.990979 3.59468 L -15.647976 5.159921 L -19.518037 2.909886 L -30.009069 2.808146 M -15.647976 5.159921 L -21.106757 14.880072 L -30.846473 20.624509 M -15.647976 5.159921 L -28.85079 12.931346 L -41.400115 20.319287 L -49.273281 15.764434 L -61.059551 15.701824 M -41.400115 20.319287 L -46.988028 30.113787 L -58.519947 36.977372 M -41.400115 20.319287 L -43.380146 19.184487 L -49.958074 15.416168 L -50.2046 -0.435818 L -54.497275 -7.690713 M -49.958074 15.416168 L -65.414836 15.686172 L -69.691859 13.307004 M -49.958074 15.416168 L -65.637883 15.560952 L -65.767016 15.560952 L -71.44493 6.161676 L -76.68849 3.324675 M -65.767016 15.560952 L -79.157658 23.621947 L -84.30339 23.704122 M -41.400115 20.319287 L -48.66675 33.083833 L -53.311605 41.238742 L -68.14227 41.246569 L -76.070219 45.754465 M -53.311605 41.238742 L -53.143341 52.023258 L -57.475148 59.657724 M -53.311605 41.238742 L -54.430753 41.911796 L -61.87739 46.392301 L -72.149289 40.780909 L -75.921521 40.863084 M -61.87739 46.392301 L -65.806147 53.827199 L -73.370177 58.577707 M -41.400115 20.319287 L -41.967516 20.315374 L -49.097192 20.256678 L -55.753382 8.59954 L -58.476902 6.983428 M -49.097192 20.256678 L -52.744205 22.2641 L -57.299058 22.20149 M -49.097192 20.256678 L -63.235237 20.017978 L -69.179243 19.920151 L -72.40364 14.167887 L -76.379354 11.820025 M -69.179243 19.920151 L -79.372879 25.531542 L -83.986429 25.461106 M -69.179243 19.920151 L -75.15064 8.975198 L -76.798056 5.958195 L -74.121493 1.657693 L -73.808445 -11.192941 M -76.798056 5.958195 L -86.64734 -0.0640728 L -90.090872 -6.293735 M -76.798056 5.958195 L -87.981708 -0.842781 L -99.087098 -7.596798 L -99.024489 -10.144229 L -101.090608 -13.943854 M -99.087098 -7.596798 L -111.624684 -7.917673 L -123.860961 -15.391702 M -69.179243 19.920151 L -74.806286 22.999764 L -85.254275 28.716809 L -90.415659 25.594152 L -96.387056 25.425888 M -85.254275 28.716809 L -92.62265 40.745691 L -95.201386 42.162235 M -85.254275 28.716809 L -96.645321 28.536806 L -105.790246 28.392021 L -112.442523 16.429662 L -122.131369 10.740008 M -105.790246 28.392021 L -105.935031 28.474196 L -120.750043 28.255063 M -6.863057 -0.0210287 L -20.2537 0.0924514 L -23.838104 0.119843 L -30.333857 -11.247725 L -38.817467 -16.256498 M -23.838104 0.119843 L -34.227395 6.239938 L -45.152782 6.271243 M -23.838104 0.119843 L -39.45139 0.29202 L -46.827591 0.370282 L -48.686316 -2.791506 L -60.511717 -9.365522 M -46.827591 0.370282 L -52.677682 3.688594 L -61.838259 3.657289 M -46.827591 0.370282 L -47.046725 -0.00537625 L -48.807622 -3.053684 L -44.397553 -10.829023 L -44.530599 -19.645246 M -48.807622 -3.053684 L -61.063464 -10.206839 L -63.344804 -14.190379 M -48.807622 -3.053684 L -59.392569 -9.173779 L -71.577975 -16.22128 L -71.503626 -29.690185 L -79.079396 -42.865607 M -71.577975 -16.22128 L -74.778895 -16.236933 L -83.782948 -21.503971 M -46.827591 0.370282 L -48.854579 1.48943 L -59.408221 7.308216 L -64.596997 4.173819 L -78.762435 3.962511 M -59.408221 7.308216 L -62.460443 12.250466 L -74.688893 18.867526 M -59.408221 7.308216 L -66.592681 7.089082 L -71.159273 6.952123 L -74.876722 0.158974 L -85.989938 -6.48939 M -71.159273 6.952123 L -75.569342 9.354769 L -86.514294 9.174766 M -46.827591 0.370282 L -57.029054 0.241149 L -56.058604 0.252889 L -61.192597 -8.899862 L -62.605227 -9.72944 M -56.058604 0.252889 L -65.054831 5.394708 L -65.000047 5.394708 M -56.058604 0.252889 L -55.964689 0.252889 L -65.395271 0.233323 L -68.650973 -5.315459 L -76.864579 -9.936835 M -65.395271 0.233323 L -65.986149 0.573763 L -75.894129 0.573763 M -65.395271 0.233323 L -70.294477 -8.195503 L -74.391497 -15.243004 L -74.011926 -15.912145 L -74.16845 -31.298471 M -74.391497 -15.243004 L -76.755012 -16.636069 L -77.486763 -17.931307 M -74.391497 -15.243004 L -82.804671 -20.20482 L -87.848663 -23.174866 L -87.852576 -22.642684 L -90.979146 -28.101465 M -87.848663 -23.174866 L -87.003432 -23.170953 L -99.646672 -30.586286 M -65.395271 0.233323 L -64.741782 -0.150161 L -72.051461 4.146427 L -80.323763 -0.549298 L -87.019085 -0.545385 M -72.051461 4.146427 L -75.224989 9.9613 L -82.26075 14.1718 M -72.051461 4.146427 L -75.534124 4.173819 L -75.964565 4.177732 L -76.80197 2.765102 L -86.377336 -2.607591 M -75.964565 4.177732 L -83.227287 8.525191 L -91.37437 8.693454 M -65.395271 0.233323 L -66.447896 -1.515834 L -71.315797 -9.572916 L -64.506996 -22.075284 L -64.831784 -33.028063 M -71.315797 -9.572916 L -81.607262 -15.14909 L -81.732481 -15.352571 M -71.315797 -9.572916 L -75.455862 -16.197802 L -76.731534 -18.240442 L -69.809252 -31.525431 L -69.977516 -34.835917 M -76.731534 -18.240442 L -86.443858 -23.339217 L -86.882126 -24.031836 M -76.731534 -18.240442 L -69.633163 -31.564562 L -63.638287 -42.826476 L -60.296496 -42.947782 L -58.793864 -43.910406 M -63.638287 -42.826476 L -63.747854 -48.750916 L -61.59956 -52.644455 M -63.638287 -42.826476 L -63.970901 -55.806243 L -64.186121 -64.199851 L -55.170329 -69.642979 L -50.396342 -78.189199 M -64.186121 -64.199851 L -63.59133 -63.225488 L -63.657852 -65.318999 M -76.731534 -18.240442 L -84.467741 -22.313984 L -88.161711 -24.254883 L -88.517804 -33.000671 L -89.265207 -34.190255 M -88.161711 -24.254883 L -97.721425 -23.79705 L -105.140671 -27.674936 M -88.161711 -24.254883 L -91.781333 -29.889753 L -94.489201 -34.10808 L -90.486095 -41.73472 L -90.869579 -51.689657 M -94.489201 -34.10808 L -103.039334 -38.635541 L -103.861085 -39.958171 M -76.731534 -18.240442 L -84.260346 -22.243548 L -88.0091 -24.235318 L -88.255626 -35.184183 L -92.082642 -41.546891 M -88.0091 -24.235318 L -99.697542 -23.918356 L -113.17036 -31.102816 M -88.0091 -24.235318 L -88.126493 -24.297927 L -102.064971 -31.881523 L -102.131493 -34.820265 L -107.042439 -42.791258 M -102.064971 -31.881523 L -113.831675 -31.411951 L -115.209088 -32.128049 M -102.064971 -31.881523 L -102.072797 -32.308052 L -102.299757 -41.977332 L -100.624948 -42.971261 L -97.694033 -48.191342 M -102.299757 -41.977332 L -109.02247 -52.902719 L -109.441172 -64.947254 M -102.299757 -41.977332 L -110.274663 -55.238843 L -112.567742 -59.058032 L -111.538596 -60.916757 L -111.542509 -61.116325 M -112.567742 -59.058032 L -118.210439 -62.290256 L -123.086167 -70.570385 M -102.064971 -31.881523 L -111.194243 -31.681955 L -124.072269 -31.404125 L -124.733583 -32.464576 L -138.793367 -39.934692 M -124.072269 -31.404125 L -132.865014 -25.910126 L -146.416094 -25.471859 M -124.072269 -31.404125 L -133.909813 -36.690729 L -144.436063 -42.349077 L -144.686502 -57.551487 L -151.299648 -68.735139 M -144.436063 -42.349077 L -155.506235 -42.114291 L -167.48816 -48.727437 M -65.395271 0.233323 L -68.502275 2.041177 L -69.241852 2.471619 L -74.755416 -0.709735 L -79.427663 -0.694083 M -69.241852 2.471619 L -69.586205 3.066411 L -77.619808 7.62909 M -69.241852 2.471619 L -75.792389 6.263417 L -77.92503 7.499958 L -88.365193 1.626388 L -89.578255 1.649867 M -77.92503 7.499958 L -84.796442 19.258836 L -89.347382 21.880616 M -77.92503 7.499958 L -84.25252 3.813813 L -87.230392 2.076395 L -87.210827 -0.799736 L -86.768646 -0.0288549 M -87.230392 2.076395 L -101.196261 1.884653 L -102.424976 1.141163 M -87.230392 2.076395 L -101.419308 2.052917 L -116.351714 2.033351 L -122.029628 -7.823759 L -127.386668 -10.911198 M -116.351714 2.033351 L -130.164972 9.828255 L -137.490303 9.808689 M -77.92503 7.499958 L -78.202861 7.973443 L -84.311217 18.440997 L -91.174801 18.425345 L -99.642759 23.265855 M -84.311217 18.440997 L -84.385566 34.559074 L -92.403516 48.129719 M -84.311217 18.440997 L -92.160904 22.905849 L -92.462213 23.078026 L -106.326341 14.962247 L -121.493533 14.899638 M -92.462213 23.078026 L -96.297055 29.698998 L -102.080623 33.056442 M -77.92503 7.499958 L -92.450473 7.531263 L -95.792264 7.539089 L -98.605786 2.679013 L -104.01761 -0.498427 M -95.792264 7.539089 L -95.127037 7.147778 L -97.549248 7.147778 M -95.792264 7.539089 L -101.071042 7.593872 L -112.567742 7.711265 L -113.193839 6.611683 L -113.221231 6.596031 M -112.567742 7.711265 L -113.647759 8.333449 L -123.767047 8.364754 M -112.567742 7.711265 L -113.57341 5.985586 L -113.659498 5.836888 L -106.866349 -5.875033 L -106.846784 -9.103344 M -113.659498 5.836888 L -116.433889 4.26382 L -116.719546 3.766856 M -113.659498 5.836888 L -123.160516 0.39376 L -136.304633 -7.131139 L -136.296806 -6.015904 L -143.144739 -17.837392 M -136.304633 -7.131139 L -135.944627 -7.135052 L -145.296946 -12.4647 M -112.567742 7.711265 L -115.698226 9.515206 L -123.497043 14.003537 L -128.940171 10.810444 L -128.994954 10.806531 M -123.497043 14.003537 L -125.735338 17.748378 L -138.824672 25.073709 M -123.497043 14.003537 L -132.677185 13.921362 L -133.064582 13.917449 L -138.398143 4.486867 L -140.151214 3.461634 M -133.064582 13.917449 L -140.354696 17.912728 L -151.338779 17.693594 M -65.395271 0.233323 L -70.717092 -8.762904 L -70.760137 -8.837253 L -67.124863 -15.309527 L -67.183559 -18.279573 M -70.760137 -8.837253 L -76.778491 -12.280784 L -80.781597 -19.171761 M -70.760137 -8.837253 L -71.832327 -10.652933 L -75.197597 -16.366065 L -68.619669 -28.4106 L -68.654887 -29.521922 M -75.197597 -16.366065 L -82.022051 -20.220473 L -87.66866 -29.780186 M -75.197597 -16.366065 L -70.497959 -24.798805 L -63.47785 -37.379435 L -53.573783 -37.606395 L -51.405923 -38.944677 M -63.47785 -37.379435 L -63.626548 -52.969242 L -56.790354 -64.998125 M -63.47785 -37.379435 L -63.614808 -46.872626 L -63.661766 -50.120502 L -50.717217 -57.633662 L -48.803709 -60.967627 M -63.661766 -50.120502 L -65.062657 -52.511409 L -65.152658 -60.975453 M -75.197597 -16.366065 L -80.859859 -19.594376 L -94.230936 -27.221016 L -94.403112 -40.697747 L -102.565848 -54.323176 M -94.230936 -27.221016 L -93.913974 -27.221016 L -105.461545 -33.779379 M -94.230936 -27.221016 L -100.354944 -37.481176 L -108.576376 -51.263129 L -102.119754 -62.724611 L -102.256713 -75.653507 M -108.576376 -51.263129 L -116.410411 -55.622327 L -123.583131 -67.827299 M -75.197597 -16.366065 L -76.066306 -17.845218 L -80.065499 -24.646194 L -76.978059 -29.975842 L -76.950668 -40.772096 M -80.065499 -24.646194 L -84.851225 -27.381454 L -85.516453 -28.535819 M -80.065499 -24.646194 L -79.987236 -24.517061 L -79.494185 -23.667918 L -74.477586 -32.593708 L -74.74759 -46.33653 M -79.494185 -23.667918 L -87.786053 -28.277554 L -94.767031 -39.860343 M -79.494185 -23.667918 L -75.99587 -29.975842 L -73.66366 -34.182429 L -65.802234 -34.237212 L -53.925962 -41.081231 M -73.66366 -34.182429 L -73.765401 -43.049523 L -67.927049 -53.462293 M -73.66366 -34.182429 L -73.933664 -47.138717 L -74.074536 -53.802733 L -66.580941 -58.232367 L -65.528316 -60.102831 M -74.074536 -53.802733 L -76.79023 -58.490632 L -76.856753 -68.750792 M -79.494185 -23.667918 L -84.260346 -26.383612 L -83.419029 -25.9023 L -83.446421 -28.340164 L -88.290844 -36.479421 M -83.419029 -25.9023 L -86.115158 -25.894474 L -87.852576 -26.904055 M -83.419029 -25.9023 L -85.661238 -29.752795 L -85.582975 -29.619749 L -81.795091 -36.193764 L -81.838135 -42.114291 M -85.582975 -29.619749 L -86.346031 -30.042364 L -87.688226 -32.237616 M -79.494185 -23.667918 L -76.359789 -29.25583 L -69.582292 -41.339496 L -57.420364 -41.562543 L -46.005839 -48.492651 M -69.582292 -41.339496 L -69.660554 -45.761304 L -67.124863 -50.339636 M -69.582292 -41.339496 L -66.627899 -46.720015 L -65.907887 -48.030905 L -57.408625 -48.214821 L -48.878058 -53.333161 M -65.907887 -48.030905 L -66.127021 -61.605463 L -63.368283 -66.55554 M -65.907887 -48.030905 L -50.43156 -48.285256 L -45.266262 -48.371345 L -43.595367 -45.636085 L -42.018386 -44.759549 M -45.266262 -48.371345 L -44.96104 -48.559174 L -40.922717 -48.668741 M -45.266262 -48.371345 L -40.625321 -51.180954 L -34.830013 -54.687095 L -22.214165 -47.745248 L -23.180702 -47.721769 M -34.830013 -54.687095 L -28.901661 -65.960748 L -15.945372 -74.064787 M -65.907887 -48.030905 L -66.068325 -55.864939 L -66.080064 -56.36973 L -63.462197 -57.946711 L -61.482166 -61.515462 M -66.080064 -56.36973 L -67.433998 -58.713679 L -67.469216 -66.852936 M -66.080064 -56.36973 L -65.223094 -57.903667 L -64.006119 -60.083266 L -53.589435 -60.318052 L -43.822327 -66.222926 M -64.006119 -60.083266 L -64.053076 -65.839442 L -58.46125 -75.856989 M -65.907887 -48.030905 L -66.064412 -52.511409 L -66.080064 -52.95359 L -62.452616 -55.17232 L -59.748661 -60.173267 M -66.080064 -52.95359 L -70.165345 -59.414125 L -70.400131 -65.526394 M -66.080064 -52.95359 L -66.471374 -62.607218 L -66.874424 -72.585634 L -53.812482 -80.830544 L -49.226324 -89.541114 M -66.874424 -72.585634 L -74.931506 -85.358006 L -75.25238 -94.85511 M -66.874424 -72.585634 L -59.650834 -77.140487 L -60.014752 -76.913527 L -54.070747 -73.880871 L -43.869284 -74.366096 M -60.014752 -76.913527 L -55.929472 -84.829737 L -53.679437 -86.254107 M -60.014752 -76.913527 L -55.749469 -85.048871 L -50.130251 -95.76295 L -45.504962 -96.013389 L -31.993013 -104.743524 M -50.130251 -95.76295 L -50.478517 -101.433038 L -48.541531 -105.263967 M -66.874424 -72.585634 L -67.22269 -73.133468 L -74.250626 -84.289729 L -73.687139 -85.365832 L -74.262365 -99.112567 M -74.250626 -84.289729 L -78.155904 -86.363674 L -82.170749 -92.81247 M -74.250626 -84.289729 L -74.45802 -91.039833 L -74.567587 -94.632063 L -61.994783 -102.520881 L -58.876039 -108.308362 M -74.567587 -94.632063 L -80.339416 -103.667421 L -80.605507 -110.538832 M -79.494185 -23.667918 L -89.136074 -29.064088 L -102.741938 -36.675076 L -102.910201 -48.28917 L -102.92194 -48.308735 M -102.741938 -36.675076 L -116.13258 -36.557683 L -119.403935 -38.428147 M -102.741938 -36.675076 L -109.010731 -40.173391 L -112.966879 -42.380382 L -113.096011 -52.077054 L -112.512959 -51.110518 M -112.966879 -42.380382 L -121.254834 -42.341251 L -120.691347 -42.028203 M -112.966879 -42.380382 L -113.096011 -53.3449 L -113.260362 -67.506424 L -111.914254 -68.316437 L -107.519838 -76.103514 M -113.260362 -67.506424 L -118.167395 -75.72003 L -118.167395 -75.676986 M -113.260362 -67.506424 L -115.948664 -72.112148 L -115.737357 -71.752143 L -108.388547 -84.78278 L -108.451157 -90.448955 M -115.737357 -71.752143 L -118.046088 -73.055206 L -120.483952 -77.195271 M -112.966879 -42.380382 L -117.971739 -42.30212 L -133.714158 -42.055594 L -139.188591 -51.087039 L -139.556422 -51.29052 M -133.714158 -42.055594 L -146.510009 -34.248951 L -147.934379 -34.225473 M -133.714158 -42.055594 L -140.327304 -45.729999 L -151.354432 -51.854007 L -151.401389 -55.594935 L -157.826706 -66.355972 M -151.354432 -51.854007 L -155.917111 -51.803137 L -168.450784 -58.709766 M -112.966879 -42.380382 L -119.004799 -52.350972 L -126.357522 -64.493334 L -126.78405 -63.683322 L -127.316232 -79.26139 M -126.357522 -64.493334 L -134.128947 -68.566876 L -134.125034 -68.559049 M -126.357522 -64.493334 L -132.602836 -74.52262 L -134.379385 -77.367447 L -128.689732 -88.061961 L -128.756255 -90.527217 M -134.379385 -77.367447 L -147.042191 -84.187988 L -150.693117 -90.143733 M -134.379385 -77.367447 L -131.468036 -82.759705 L -127.836675 -89.478505 L -116.265626 -89.932425 L -104.29544 -97.42602 M -127.836675 -89.478505 L -127.914937 -91.935934 L -123.035296 -100.95564 M -127.836675 -89.478505 L -127.832762 -89.372851 L -127.903198 -91.282446 L -114.547773 -99.711272 L -113.252536 -102.149136 M -127.903198 -91.282446 L -135.83506 -103.863076 L -135.921148 -105.839194 M -134.379385 -77.367447 L -142.988215 -81.953605 L -153.913602 -87.768478 L -153.984038 -89.267197 L -160.921971 -100.024321 M -153.913602 -87.768478 L -159.751953 -87.545431 L -170.203855 -93.086387 M -153.913602 -87.768478 L -155.334059 -89.95199 L -163.73158 -102.841756 L -163.586795 -103.115673 L -163.884191 -111.470151 M -163.73158 -102.841756 L -167.331636 -104.661349 L -168.259042 -106.081806 M -79.494185 -23.667918 L -83.927732 -26.113608 L -89.707387 -29.302788 L -89.867825 -41.163407 L -95.917484 -51.388348 M -89.707387 -29.302788 L -90.235656 -29.283222 L -93.671362 -31.106729 M -89.707387 -29.302788 L -95.710089 -32.581969 L -94.915729 -32.147615 L -94.997904 -36.8316 L -102.02584 -48.602218 M -94.915729 -32.147615 L -100.42538 -32.022395 L -103.720214 -33.841989 M -94.915729 -32.147615 L -95.303126 -46.082179 L -95.365736 -48.316561 L -83.68512 -55.379714 L -83.152938 -56.338425 M -95.365736 -48.316561 L -101.881055 -58.592373 L -101.838011 -57.645402 M -95.365736 -48.316561 L -99.16536 -54.421004 L -107.288965 -67.479033 L -107.82506 -66.477278 L -108.059846 -76.291343 M -107.288965 -67.479033 L -113.639933 -70.871694 L -117.877825 -77.668756 M -94.915729 -32.147615 L -109.773786 -32.061526 L -123.630088 -31.979351 L -125.637511 -35.364186 L -130.60324 -38.122925 M -123.630088 -31.979351 L -131.393687 -27.463629 L -131.542385 -27.463629 M -123.630088 -31.979351 L -134.731565 -38.306841 L -139.626858 -41.096884 L -139.626858 -42.497775 L -146.298701 -54.244914 M -139.626858 -41.096884 L -147.175236 -41.046014 L -156.668427 -46.410879 M -94.915729 -32.147615 L -93.972671 -31.619345 L -106.330254 -38.533801 L -106.314602 -37.305086 L -106.545475 -37.68857 M -106.330254 -38.533801 L -115.706052 -38.459452 L -124.021398 -43.194308 M -106.330254 -38.533801 L -113.714282 -42.709083 L -120.671781 -46.641753 L -120.750043 -55.806243 L -124.334447 -61.879381 M -120.671781 -46.641753 L -129.253219 -46.606535 L -129.182783 -46.567404 M -120.671781 -46.641753 L -120.663955 -48.645262 L -120.63265 -55.665371 L -110.188575 -61.707204 L -109.190733 -63.468101 M -120.63265 -55.665371 L -120.867436 -56.076247 L -120.867436 -58.545416 M -120.63265 -55.665371 L -128.529295 -68.942534 L -135.361575 -80.427495 L -132.837622 -85.056697 L -133.174149 -95.696427 M -135.361575 -80.427495 L -142.146897 -84.172335 L -145.559124 -89.889381 M -120.671781 -46.641753 L -132.062828 -46.633926 L -135.615926 -46.633926 L -137.646827 -50.065719 L -144.396932 -53.865343 M -135.615926 -46.633926 L -138.523363 -44.876943 L -151.10008 -44.528676 M -135.615926 -46.633926 L -137.071601 -47.451765 L -142.045157 -50.241809 L -142.072548 -56.361904 L -145.054334 -61.48807 M -142.045157 -50.241809 L -143.481266 -50.230069 L -149.476142 -53.595339 M -120.671781 -46.641753 L -120.706999 -50.050066 L -120.797001 -59.852393 L -114.023417 -63.906369 L -108.631159 -73.497387 M -120.797001 -59.852393 L -123.939223 -65.119431 L -123.947049 -65.847268 M -120.797001 -59.852393 L -120.812653 -62.68548 L -120.914394 -78.709642 L -109.006817 -85.792361 L -103.391513 -95.997736 M -120.914394 -78.709642 L -120.879176 -78.654858 L -121.360488 -93.559873 M -120.914394 -78.709642 L -121.110049 -78.596162 L -119.204367 -79.719223 L -116.429976 -78.150068 L -114.743428 -78.153981 M -119.204367 -79.719223 L -113.624281 -89.584159 L -109.820743 -91.798976 M -119.204367 -79.719223 L -111.436855 -93.274216 L -103.79065 -106.617901 L -101.61105 -106.598336 L -87.876055 -114.385413 M -103.79065 -106.617901 L -103.771084 -108.194882 L -98.100996 -117.840684 M -120.914394 -78.709642 L -121.059179 -78.952254 L -122.084412 -80.67402 L -122.103977 -80.634889 L -122.272241 -93.927704 M -122.084412 -80.67402 L -125.371419 -82.427091 L -127.128403 -85.283657 M -122.084412 -80.67402 L -122.193979 -85.412789 L -122.217457 -86.348021 L -114.121245 -91.231575 L -110.806845 -97.285148 M -122.217457 -86.348021 L -124.745323 -90.550695 L -124.85489 -97.101232 M -120.914394 -78.709642 L -120.319602 -77.7118 L -119.916552 -77.027007 L -116.124754 -84.031464 L -116.273452 -90.351127 M -119.916552 -77.027007 L -122.941382 -78.639206 L -129.844098 -89.869815 M -119.916552 -77.027007 L -127.535366 -89.411982 L -128.920605 -91.66593 L -122.675291 -103.240892 L -123.097906 -118.47852 M -128.920605 -91.66593 L -130.736285 -92.640293 L -130.501499 -92.268548 M -128.920605 -91.66593 L -126.795789 -95.672949 L -122.878772 -103.04915 L -110.493797 -103.424808 L -109.042035 -104.30917 M -122.878772 -103.04915 L -122.874859 -102.892626 L -120.448734 -107.43574 M -122.878772 -103.04915 L -122.847467 -102.168702 L -123.277909 -114.166279 L -113.526453 -120.110285 L -106.044598 -133.90789 M -123.277909 -114.166279 L -130.521065 -125.979941 L -130.60324 -129.983047 M -128.920605 -91.66593 L -134.665042 -94.655542 L -137.862048 -96.318611 L -137.928571 -97.919071 L -139.88121 -100.95564 M -137.862048 -96.318611 L -152.383578 -95.723819 L -157.548876 -98.392556 M -137.862048 -96.318611 L -145.308686 -107.944444 L -153.890123 -121.331173 L -151.041383 -126.829085 L -151.260517 -131.540462 M -153.890123 -121.331173 L -161.986336 -125.475151 L -165.261604 -130.562186 M -120.671781 -46.641753 L -127.23797 -46.57523 L -141.536453 -46.430445 L -149.667884 -59.907176 L -158.707154 -64.810296 M -141.536453 -46.430445 L -142.913866 -45.620432 L -151.741829 -45.612606 M -141.536453 -46.430445 L -156.554947 -46.211311 L -160.260657 -46.156528 L -161.074583 -47.502636 L -165.981615 -50.179199 M -160.260657 -46.156528 L -171.819967 -39.394684 L -187.922391 -39.316421 M -160.260657 -46.156528 L -160.256744 -46.148701 L -159.947609 -45.628259 L -159.192379 -46.958714 L -159.317599 -61.308067 M -159.947609 -45.628259 L -167.476421 -49.920934 L -167.765991 -50.417898 M -159.947609 -45.628259 L -168.939922 -50.72312 L -179.313561 -56.600603 L -179.344866 -61.018498 L -187.25325 -74.229138 M -179.313561 -56.600603 L -179.767482 -56.59669 L -193.287257 -64.438551 M -160.260657 -46.156528 L -171.373873 -39.45338 L -184.666688 -31.439343 L -192.83725 -36.002022 L -199.571702 -35.962891 M -184.666688 -31.439343 L -188.72849 -24.204013 L -188.928059 -24.08662 M -184.666688 -31.439343 L -188.67762 -31.337602 L -188.528922 -31.341515 L -190.168513 -34.04547 L -192.727683 -35.442448 M -188.528922 -31.341515 L -196.112518 -26.731878 L -202.737403 -26.563615 M -160.260657 -46.156528 L -171.706487 -52.425321 L -171.698661 -52.421408 L -171.812141 -55.516673 L -175.670461 -61.730683 M -171.698661 -52.421408 L -187.738475 -51.951835 L -201.896086 -59.457169 M -171.698661 -52.421408 L -179.106167 -56.408861 L -189.608939 -62.063296 L -189.581547 -61.429374 L -190.927655 -63.565928 M -189.608939 -62.063296 L -188.971103 -62.082862 L -195.10685 -65.373783 M -189.608939 -62.063296 L -189.64807 -63.272446 L -189.687201 -64.579422 L -189.025886 -64.986385 L -187.07716 -68.594267 M -189.687201 -64.579422 L -197.063402 -76.091775 L -197.415582 -83.741894 M -189.687201 -64.579422 L -195.717294 -74.025656 L -201.430427 -82.974926 L -199.966926 -85.776708 L -200.346497 -96.173826 M -201.430427 -82.974926 L -205.805277 -85.295396 L -207.746177 -88.437619 M -189.608939 -62.063296 L -197.27471 -61.805032 L -200.459977 -61.699378 L -201.696518 -63.702887 L -207.836178 -66.985982 M -200.459977 -61.699378 L -201.250424 -61.194587 L -204.971786 -60.998932 M -200.459977 -61.699378 L -205.993106 -64.630293 L -215.462818 -69.646892 L -215.740649 -77.066138 L -221.453781 -85.988016 M -215.462818 -69.646892 L -223.598162 -69.431672 L -230.571314 -73.184339 M -65.395271 0.233323 L -68.43184 2.095961 L -68.952282 2.416835 L -76.665011 -1.817144 L -89.296511 -1.547139 M -68.952282 2.416835 L -72.916257 9.91043 L -83.587292 16.730971 M -68.952282 2.416835 L -79.908974 9.209984 L -90.130003 15.549213 L -102.19019 9.206071 L -104.033262 9.268681 M -90.130003 15.549213 L -95.940962 26.631124 L -104.945015 32.34817 M -90.130003 15.549213 L -91.480024 14.852681 L -94.395286 13.342222 L -95.013557 -1.351484 L -95.725742 -2.482371 M -94.395286 13.342222 L -98.343608 13.541791 L -105.993727 9.667817 M -94.395286 13.342222 L -108.791597 13.937014 L -123.500956 14.543545 L -131.749779 1.869001 L -141.344711 -2.932378 M -123.500956 14.543545 L -124.866629 15.408341 L -137.560739 15.854435 M -90.130003 15.549213 L -93.444402 21.735831 L -94.430504 23.578903 L -106.96809 23.942822 L -116.269539 29.722477 M -94.430504 23.578903 L -94.352242 25.378931 L -101.49757 38.996534 M -94.430504 23.578903 L -98.441436 26.087203 L -110.869455 33.866454 L -116.868244 30.739884 L -116.551282 30.728144 M -110.869455 33.866454 L -115.682573 43.019205 L -128.153637 50.974546 M -90.130003 15.549213 L -90.145655 15.560952 L -99.490148 21.414956 L -105.117192 18.319691 L -114.43038 18.45665 M -99.490148 21.414956 L -99.576236 21.58322 L -99.85798 21.75931 M -99.490148 21.414956 L -106.936785 26.024593 L -117.877825 32.794264 L -124.553581 29.186381 L -139.951646 29.671606 M -117.877825 32.794264 L -122.088325 40.436556 L -126.858399 43.343993 M -117.877825 32.794264 L -131.765432 25.3398 L -132.262396 25.073709 L -132.806318 10.047389 L -137.114645 3.042932 M -132.262396 25.073709 L -138.63293 25.335887 L -138.801193 25.249799 M -132.262396 25.073709 L -142.620383 25.378931 L -142.04907 25.363279 L -147.965683 15.647041 L -158.699328 9.753906 M -142.04907 25.363279 L -141.571671 25.073709 L -140.777311 25.06197 M -117.877825 32.794264 L -121.826147 40.385686 L -125.676642 47.797105 L -131.471949 47.988847 L -143.583007 55.502007 M -125.676642 47.797105 L -125.469247 52.528048 L -126.553177 54.621559 M -125.676642 47.797105 L -126.525785 48.337114 L -134.516344 53.428062 L -141.30558 49.88279 L -149.663971 50.172359 M -134.516344 53.428062 L -140.569916 65.218245 L -147.143931 69.467876 M -117.877825 32.794264 L -132.19196 25.406323 L -138.276837 22.2641 L -138.722931 10.959142 L -146.729142 -1.554966 M -138.276837 22.2641 L -149.62484 22.823674 L -151.170516 22.03714 M -138.276837 22.2641 L -145.379121 18.621 L -149.120049 16.699666 L -149.237442 13.745272 L -155.607976 3.676855 M -149.120049 16.699666 L -153.005762 16.883582 L -165.026818 10.606962 M -149.120049 16.699666 L -149.573969 6.048196 L -150.24311 -9.698135 L -142.937344 -14.307772 L -138.233793 -23.155301 M -150.24311 -9.698135 L -152.328795 -13.059492 L -152.504884 -18.6161 M -150.24311 -9.698135 L -150.595289 -10.249883 L -153.72186 -15.160829 L -150.595289 -21.003094 L -150.669638 -23.761832 M -153.72186 -15.160829 L -165.754655 -21.519623 L -173.623908 -34.182429 M -149.120049 16.699666 L -153.334462 16.844451 L -162.322863 17.153586 L -170.184289 4.545564 L -170.164724 4.55339 M -162.322863 17.153586 L -168.176867 20.804512 L -168.783398 20.827991 M -162.322863 17.153586 L -170.023852 12.997869 L -173.803911 10.955229 L -174.2187 -1.605836 L -175.373065 -3.488039 M -173.803911 10.955229 L -184.169724 11.38567 L -184.40451 11.260451 M -149.120049 16.699666 L -162.600693 17.239674 L -165.688132 17.36098 L -165.077688 18.354909 L -177.028309 12.027419 M -165.688132 17.36098 L -173.040855 21.904094 L -185.394525 22.244534 M -165.688132 17.36098 L -167.511639 17.419677 L -168.364696 17.447069 L -172.986072 9.886951 L -186.247582 2.596838 M -168.364696 17.447069 L -173.706083 20.816251 L -185.441483 21.367999 M -168.364696 17.447069 L -168.849921 16.660535 L -176.159599 4.835134 L -175.153932 2.937278 L -175.236107 0.268541 M -176.159599 4.835134 L -182.901878 1.246817 L -187.441079 -6.019817 M -176.159599 4.835134 L -185.394525 -0.0445073 L -193.263778 -4.200224 L -193.396824 -9.721614 L -200.053014 -20.631349 M -193.263778 -4.200224 L -203.430023 -3.758043 L -212.167985 -8.230721 M -168.364696 17.447069 L -179.309648 24.224565 L -183.461452 26.795475 L -194.347708 20.867122 L -207.757916 21.281911 M -183.461452 26.795475 L -188.016305 35.212562 L -193.592479 38.636528 M -183.461452 26.795475 L -198.52299 27.257221 L -203.320456 27.405919 L -205.140049 24.521961 L -216.86371 18.21795 M -203.320456 27.405919 L -204.971786 28.411587 L -215.055856 28.689417 M -117.877825 32.794264 L -117.592168 32.246429 L -124.600538 45.684029 L -135.162006 46.137949 L -146.627402 53.471106 M -124.600538 45.684029 L -124.483145 49.014081 L -131.05716 61.285576 M -124.600538 45.684029 L -131.291946 58.515098 L -131.021942 57.994655 L -142.921692 58.522924 L -156.210594 67.049578 M -131.021942 57.994655 L -130.916288 62.901688 L -136.551158 72.981844 M -131.021942 57.994655 L -141.336885 58.276398 L -146.173482 58.409444 L -147.957857 55.556791 L -158.507586 49.88279 M -146.173482 58.409444 L -153.714033 63.1443 L -153.025327 63.112995 M -146.173482 58.409444 L -155.521888 64.298666 L -155.079707 64.016922 L -154.097518 64.545191 L -170.051244 64.967807 M -155.079707 64.016922 L -156.527555 66.728704 L -167.797296 73.84664 M -131.021942 57.994655 L -130.986724 59.031627 L -130.853678 63.163866 L -137.048123 66.971316 L -139.842079 72.027047 M -130.853678 63.163866 L -129.46844 65.398248 L -129.327568 70.011798 M -130.853678 63.163866 L -138.16727 77.168866 L -139.227722 79.199767 L -150.055281 79.700644 L -150.595289 80.041084 M -139.227722 79.199767 L -138.992935 84.517675 L -139.70512 85.891175 M -131.021942 57.994655 L -139.184677 63.128648 L -146.044349 67.444802 L -152.215315 64.189099 L -154.469263 64.271274 M -146.044349 67.444802 L -147.186976 69.628314 L -157.552789 76.143632 M -146.044349 67.444802 L -146.126524 67.495672 L -145.179553 66.90088 L -153.213156 62.553421 L -164.510288 62.768642 M -145.179553 66.90088 L -150.12963 76.272765 L -149.977019 76.17885 M -145.179553 66.90088 L -155.271449 61.410795 L -158.253234 59.786857 L -158.722807 45.965772 L -163.395053 38.546527 M -158.253234 59.786857 L -160.976755 59.865119 L -160.937624 59.888597 M -158.253234 59.786857 L -173.799998 60.389475 L -181.594901 60.694697 L -183.175795 58.202049 L -196.488176 51.256289 M -181.594901 60.694697 L -192.363764 67.679588 L -196.601656 67.926113 M -145.179553 66.90088 L -146.361311 69.111784 L -151.135298 78.049314 L -153.459682 78.135402 L -155.952329 79.700644 M -151.135298 78.049314 L -151.107906 78.675411 L -152.817933 81.970245 M -151.135298 78.049314 L -162.365907 85.214208 L -163.50462 85.938132 L -169.515148 82.854606 L -177.994845 83.292874 M -163.50462 85.938132 L -167.280766 93.251724 L -174.026958 97.587444 M -117.877825 32.794264 L -126.318391 33.169922 L -126.517959 33.177748 L -131.741953 25.085448 L -137.881614 21.892355 M -126.517959 33.177748 L -132.630228 37.118244 L -136.711596 37.286507 M -126.517959 33.177748 L -135.561143 33.702104 L -141.278188 34.030804 L -150.012237 20.824078 L -156.3319 17.634898 M -141.278188 34.030804 L -154.05056 42.659199 L -159.884999 43.089641 M -141.278188 34.030804 L -143.493005 30.74771 L -142.980389 31.510765 L -140.867312 27.128089 L -141.563845 17.928381 M -142.980389 31.510765 L -153.784469 26.396338 L -153.627945 26.623298 M -142.980389 31.510765 L -144.541717 30.751623 L -157.01278 24.678485 L -157.646703 14.304846 L -157.341481 14.770505 M -157.01278 24.678485 L -162.694608 25.011099 L -165.179429 23.786298 M -141.278188 34.030804 L -152.782715 41.704402 L -164.557245 49.565828 L -174.801752 44.502271 L -184.021026 45.050106 M -164.557245 49.565828 L -170.959084 62.52603 L -183.841023 71.083989 M -164.557245 49.565828 L -178.495723 50.497147 L -193.811613 51.526294 L -200.096058 42.08006 L -207.847918 38.253044 M -193.811613 51.526294 L -196.805137 53.521977 L -203.958292 54.003289 M -141.278188 34.030804 L -156.191028 35.08343 L -165.261604 35.725179 L -168.200345 31.307284 L -170.164724 30.317269 M -165.261604 35.725179 L -173.4126 41.227003 L -185.328003 42.111365 M -165.261604 35.725179 L -165.112906 35.713439 L -165.410302 35.733005 L -168.654265 30.908147 L -176.89135 26.889389 M -165.410302 35.733005 L -177.552665 43.739216 L -179.951397 43.868349 M -165.410302 35.733005 L -172.825635 24.752834 L -180.58532 13.267873 L -176.969612 5.809497 L -178.092673 -8.2542 M -180.58532 13.267873 L -189.045452 9.127809 L -195.611641 -0.654952 M -180.58532 13.267873 L -194.187271 6.44342 L -201.614343 2.718144 L -201.966522 -3.112381 L -208.810541 -13.564282 M -201.614343 2.718144 L -213.784097 3.41859 L -227.299959 -3.401951 M -165.410302 35.733005 L -172.512586 40.59308 L -177.869626 44.255746 L -179.39965 43.500517 L -193.314648 44.52575 M -177.869626 44.255746 L -181.657511 51.866734 L -193.060297 59.375981 M -177.869626 44.255746 L -190.035467 45.018801 L -192.708117 45.187065 L -201.579125 32.10947 L -212.731472 26.732865 M -192.708117 45.187065 L -199.646051 49.918008 L -203.848725 50.22323 M -165.410302 35.733005 L -173.76478 23.371509 L -180.933587 12.770909 L -177.317878 5.414273 L -178.061368 -7.099834 M -180.933587 12.770909 L -194.617712 6.09124 L -201.903912 -4.66197 M -180.933587 12.770909 L -185.719313 5.672538 L -190.677216 -1.680185 L -188.333267 -6.524608 L -188.767621 -12.190783 M -190.677216 -1.680185 L -195.693816 -4.121962 L -200.268235 -10.840762 M -190.677216 -1.680185 L -184.549295 -13.834287 L -182.29926 -18.291312 L -182.631874 -18.27566 L -182.870573 -18.115223 M -182.29926 -18.291312 L -182.92927 -28.304946 L -183.007532 -28.144509 M -182.29926 -18.291312 L -182.23665 -17.226948 L -182.745354 -25.859256 L -183.124925 -25.61273 L -176.26134 -38.913372 M -182.745354 -25.859256 L -189.241107 -35.685061 L -189.18241 -34.742003 M -190.677216 -1.680185 L -202.271744 -7.612451 L -204.545258 -8.774643 L -204.940481 -18.944801 L -205.35527 -19.613942 M -204.545258 -8.774643 L -212.13668 -8.398985 L -223.5199 -14.206032 M -204.545258 -8.774643 L -203.938726 -7.847237 L -212.418423 -20.787873 L -209.91795 -25.741863 L -210.602743 -36.921602 M -212.418423 -20.787873 L -222.369447 -25.9023 L -224.619482 -29.36931 M -190.677216 -1.680185 L -189.906335 -1.281048 L -189.710679 -1.179308 L -190.262427 -15.630401 L -195.819035 -24.446625 M -189.710679 -1.179308 L -195.96382 -0.866259 L -196.425566 -1.101045 M -189.710679 -1.179308 L -199.939534 -6.434607 L -208.802715 -10.993373 L -209.002283 -16.530415 L -213.474961 -23.585742 M -208.802715 -10.993373 L -222.471188 -10.531627 L -225.926459 -12.398177 M -208.802715 -10.993373 L -209.201852 -21.75441 L -209.467943 -29.001479 L -200.135189 -34.984615 L -194.785976 -45.323036 M -209.467943 -29.001479 L -209.593162 -29.197134 L -209.984473 -36.49116 M -209.467943 -29.001479 L -216.660228 -40.08339 L -220.455939 -45.933481 L -219.332879 -48.171776 L -219.735928 -56.001898 M -220.455939 -45.933481 L -233.208746 -52.558366 L -237.747947 -59.574562 M -208.802715 -10.993373 L -208.20401 -11.016852 L -219.544186 -10.531627 L -226.982997 -21.879629 L -231.49872 -24.157056 M -219.544186 -10.531627 L -231.807855 -2.791506 L -240.847126 -2.380631 M -219.544186 -10.531627 L -225.934285 -13.924288 L -236.61706 -19.598289 L -236.812715 -26.579267 L -240.244508 -32.081092 M -236.61706 -19.598289 L -246.932003 -19.347851 L -255.709096 -24.070967 M -165.410302 35.733005 L -171.471701 39.767415 L -174.793926 41.978319 L -187.36673 35.654743 L -200.733894 36.449103 M -174.793926 41.978319 L -180.045312 52.7824 L -191.424619 60.608608 M -174.793926 41.978319 L -174.469138 41.763098 L -184.204942 48.239286 L -183.371451 48.665814 L -196.578177 49.405391 M -184.204942 48.239286 L -183.860589 47.574058 L -186.145841 49.061038 M -184.204942 48.239286 L -191.588969 44.431836 L -204.275253 37.893038 L -204.506127 32.923396 L -209.374028 25.461106 M -204.275253 37.893038 L -205.155702 37.936083 L -214.12845 33.404708 M -204.275253 37.893038 L -206.560506 38.026084 L -209.827948 38.217826 L -215.764127 29.389863 L -226.427337 24.09152 M -209.827948 38.217826 L -215.482384 41.900057 L -227.174739 42.455718 M -184.204942 48.239286 L -187.605429 55.020696 L -194.120748 68.012202 L -199.638225 68.290032 L -202.815666 70.309194 M -194.120748 68.012202 L -193.424215 81.935027 L -194.222489 83.500268 M -194.120748 68.012202 L -194.551189 68.293945 L -205.171354 75.2084 L -215.110639 70.121365 L -216.926319 70.207453 M -205.171354 75.2084 L -205.742668 76.362766 L -209.722295 79.023677 M -184.204942 48.239286 L -185.844532 48.325374 L -194.625538 48.779294 L -196.930357 45.175325 L -208.642278 39.203928 M -194.625538 48.779294 L -206.689639 56.562459 L -218.178513 57.204208 M -194.625538 48.779294 L -200.780851 49.100169 L -203.316543 49.233214 L -208.26662 41.684836 L -211.68276 39.947418 M -203.316543 49.233214 L -212.18755 55.00113 L -219.528534 55.415919 M -203.316543 49.233214 L -205.793538 45.437503 L -210.078387 38.863488 L -204.224383 27.535051 L -204.693956 18.39404 M -210.078387 38.863488 L -213.474961 37.06346 L -215.564559 33.749061 M -210.078387 38.863488 L -219.434619 33.921238 L -225.214274 30.869016 L -225.668194 18.358822 L -229.006072 13.052653 M -225.214274 30.869016 L -236.080965 31.240761 L -240.631905 28.791158 M -203.316543 49.233214 L -210.759267 54.140247 L -213.040607 55.638966 L -213.193218 55.564617 L -214.300626 55.638966 M -213.040607 55.638966 L -212.661036 54.860258 L -213.33409 55.318092 M -213.040607 55.638966 L -223.371202 56.402021 L -238.777094 57.536822 L -245.26502 48.027978 L -249.632045 45.965772 M -238.777094 57.536822 L -251.600336 66.286523 L -265.178808 67.276538 " transform="matrix(0.998248, 0, 0, -0.998248, 275.210411, 113.619633)"/>
</g>
<g clip-path="url(#clip-1)">
<path fill="none" stroke-width="0.79701" stroke-linecap="butt" stroke-linejoin="miter" stroke="rgb(34.999084%, 34.999084%, 34.999084%)" stroke-opacity="1" stroke-miterlimit="10" d="M 56.693582 -0.00146314 L 81.244398 -0.00146314 L 85.670119 -7.596798 L 86.941878 -8.320723 M 81.244398 -0.00146314 L 85.012717 2.131179 L 86.534915 2.119439 M 81.244398 -0.00146314 L 81.533967 -0.00537625 L 96.086802 -0.197118 L 98.786844 -5.049368 L 104.366931 -8.41855 M 96.086802 -0.197118 L 95.15157 -0.729301 L 106.753924 -0.924956 M 96.086802 -0.197118 L 101.064271 -9.017255 L 100.50861 -8.035066 L 95.60549 -16.23302 L 95.601577 -16.655635 M 100.50861 -8.035066 L 100.477305 -8.015501 L 101.948632 -10.641194 M 100.50861 -8.035066 L 109.348312 -13.180798 L 117.221478 -17.75913 L 117.354524 -30.17541 L 116.775384 -29.181481 M 117.221478 -17.75913 L 118.254538 -17.763043 L 125.654218 -22.063545 M 96.086802 -0.197118 L 104.66824 4.612087 L 110.518331 7.891268 L 122.82113 0.425065 L 123.932452 0.409413 M 110.518331 7.891268 L 110.471373 7.813006 L 114.411869 10.07478 M 110.518331 7.891268 L 121.475022 7.852137 L 122.519821 7.848224 L 128.459914 -2.274977 L 130.839081 -3.624998 M 122.519821 7.848224 L 121.752853 7.398217 L 124.828553 7.40213 M 96.086802 -0.197118 L 94.846348 -0.185379 L 104.003012 -0.294946 L 104.186928 -0.623647 L 108.733955 -3.30021 M 104.003012 -0.294946 L 105.161291 0.354629 L 121.302846 0.131582 M 104.003012 -0.294946 L 107.364369 -0.330164 L 115.42145 -0.408426 L 115.667976 -0.842781 L 121.134582 -4.121962 M 115.42145 -0.408426 L 120.285439 2.409009 L 128.389478 2.381617 M 115.42145 -0.408426 L 122.347645 -12.476439 L 129.598627 -25.100114 L 121.964161 -37.950748 L 121.940682 -39.539468 M 129.598627 -25.100114 L 129.156446 -24.845762 L 136.798739 -37.817703 M 129.598627 -25.100114 L 132.204754 -26.626224 L 143.693628 -33.337198 L 143.631019 -45.639998 L 145.704964 -49.29875 M 143.693628 -33.337198 L 159.256044 -33.595463 L 159.858662 -33.951556 M 115.42145 -0.408426 L 125.345083 5.105138 L 132.318234 8.983024 L 143.803195 2.268137 L 155.233373 2.209441 M 132.318234 8.983024 L 136.736129 16.476619 L 137.784841 17.075324 M 132.318234 8.983024 L 132.709545 8.979111 L 144.86756 8.881283 L 148.080218 3.222935 L 157.596888 -2.384544 M 144.86756 8.881283 L 155.061196 14.668765 L 170.576655 14.617894 M 115.42145 -0.408426 L 120.238482 -9.052473 L 126.378142 -20.071775 L 123.376791 -25.111853 L 123.38853 -24.082707 M 126.378142 -20.071775 L 125.333343 -19.418286 L 125.110296 -19.00741 M 126.378142 -20.071775 L 131.206913 -28.958435 L 137.370052 -40.294698 L 132.79172 -47.690465 L 132.756502 -48.735263 M 137.370052 -40.294698 L 139.909657 -41.867765 L 141.146198 -44.176497 M 137.370052 -40.294698 L 135.194366 -43.871275 L 127.606857 -56.318859 L 114.783614 -55.868852 L 105.540862 -60.834582 M 127.606857 -56.318859 L 127.223373 -67.615991 L 122.042423 -76.06047 M 127.606857 -56.318859 L 127.489464 -59.965873 L 127.360331 -63.835933 L 127.536421 -63.742018 L 121.154148 -74.053048 M 127.360331 -63.835933 L 133.809127 -75.469592 L 133.723039 -84.414948 M 137.370052 -40.294698 L 148.033261 -46.943062 L 161.748691 -55.497108 L 161.165639 -68.43383 L 168.55358 -82.744052 M 161.748691 -55.497108 L 164.953524 -55.649719 L 174.309756 -61.765901 M 161.748691 -55.497108 L 164.116119 -60.055874 L 164.542648 -60.873713 L 156.176431 -73.994351 L 155.503377 -86.844986 M 164.542648 -60.873713 L 173.707138 -66.586845 L 181.263342 -80.525322 M 137.370052 -40.294698 L 148.827621 -47.385242 L 153.292473 -50.147894 L 153.042034 -59.500213 L 158.516467 -69.689937 M 153.292473 -50.147894 L 166.898337 -50.441377 L 177.588937 -56.917564 M 153.292473 -50.147894 L 166.233109 -57.95845 L 176.325005 -64.051153 L 176.250656 -69.932549 L 181.275082 -78.737034 M 176.325005 -64.051153 L 189.985652 -64.235069 L 190.529573 -64.559857 M 176.325005 -64.051153 L 176.16848 -72.687374 L 176.172394 -72.597373 L 168.408795 -77.007442 L 166.628332 -80.028358 M 176.172394 -72.597373 L 176.708489 -73.552171 L 176.626314 -84.473644 M 176.172394 -72.597373 L 182.554667 -83.957115 L 188.365626 -94.295536 L 184.691222 -100.505633 L 184.546437 -115.571084 M 188.365626 -94.295536 L 189.136508 -94.757282 L 195.698784 -106.676598 M 176.325005 -64.051153 L 186.436466 -64.180286 L 186.557772 -64.180286 L 190.901318 -72.049538 L 190.983493 -72.096496 M 186.557772 -64.180286 L 194.223543 -59.770217 L 202.47628 -59.844566 M 186.557772 -64.180286 L 186.913865 -64.38768 L 189.962173 -66.156403 L 189.962173 -65.064647 L 195.186167 -74.13131 M 189.962173 -66.156403 L 201.122346 -66.121186 L 214.415161 -73.810435 M 115.42145 -0.408426 L 114.443174 -0.960174 L 118.677153 1.434646 L 123.521576 -1.42192 L 132.216494 -1.543226 M 118.677153 1.434646 L 125.685523 13.580922 L 128.56948 15.232252 M 118.677153 1.434646 L 123.447227 4.21295 L 136.810478 12.000028 L 146.198015 6.642988 L 159.205174 6.717337 M 136.810478 12.000028 L 139.670957 16.910973 L 147.661516 21.512784 M 136.810478 12.000028 L 138.508765 11.056969 L 144.354943 7.813006 L 144.734514 -4.274573 L 151.746797 -15.438659 M 144.354943 7.813006 L 153.038121 7.957791 L 157.870805 5.316446 M 144.354943 7.813006 L 146.863243 7.883442 L 149.981987 7.96953 L 152.247674 4.353822 L 157.139055 1.728129 M 149.981987 7.96953 L 162.766098 16.046177 L 173.311914 16.417922 M 136.810478 12.000028 L 137.295703 12.853084 L 137.620491 13.420484 L 146.186276 13.608313 L 158.312986 21.011907 M 137.620491 13.420484 L 137.393531 27.010695 L 141.150111 33.706017 M 137.620491 13.420484 L 137.16657 13.15048 L 147.802388 19.489709 L 161.099116 11.984375 L 165.587447 12.007854 M 147.802388 19.489709 L 152.443329 27.926362 L 153.538999 28.59159 M 136.810478 12.000028 L 146.213667 12.007854 L 154.685538 12.01568 L 154.955542 11.538281 L 160.9152 8.059532 M 154.685538 12.01568 L 153.765959 11.495237 L 152.842466 11.49915 M 154.685538 12.01568 L 164.429168 12.000028 L 165.493532 12.000028 L 172.278855 0.0298417 L 185.79863 -7.925499 M 165.493532 12.000028 L 175.444556 17.611419 L 180.676377 17.603593 M 165.493532 12.000028 L 170.267519 3.504678 L 174.141492 -3.382385 L 172.357117 -6.321126 L 172.302333 -8.348114 M 174.141492 -3.382385 L 173.738443 -3.139773 L 180.746812 -15.974755 M 174.141492 -3.382385 L 181.318126 -7.671147 L 185.239056 -10.015097 L 185.035575 -22.556596 L 186.002111 -24.282275 M 185.239056 -10.015097 L 185.34471 -10.015097 L 188.252146 -11.772081 M 165.493532 12.000028 L 167.086166 12.92352 L 173.354959 16.562707 L 173.597571 16.421835 L 188.283451 16.476619 M 173.354959 16.562707 L 174.055404 17.803161 L 187.622137 25.754589 M 173.354959 16.562707 L 173.057563 16.558794 L 187.974316 16.625317 L 191.593937 10.438699 L 193.190484 9.530859 M 187.974316 16.625317 L 191.378717 18.538825 L 204.573704 18.39404 M 115.42145 -0.408426 L 121.678504 -0.447557 L 135.049581 -0.529732 L 136.20786 -2.611504 L 139.365735 -4.521099 M 135.049581 -0.529732 L 148.377614 6.854295 L 157.596888 6.627335 M 135.049581 -0.529732 L 134.67001 -0.525819 L 146.753676 -0.635386 L 148.393267 -3.593693 L 160.758676 -10.962068 M 146.753676 -0.635386 L 152.674203 2.655535 L 165.153092 2.56162 M 146.753676 -0.635386 L 154.607276 -14.616907 L 161.357381 -26.630138 L 154.282488 -38.768587 L 154.302054 -45.389559 M 161.357381 -26.630138 L 160.809546 -26.309263 L 166.287892 -36.009848 M 161.357381 -26.630138 L 163.169148 -27.682763 L 176.18022 -35.227228 L 176.172394 -46.301313 L 181.028556 -54.597094 M 176.18022 -35.227228 L 181.838569 -35.227228 L 184.569915 -36.819861 M 146.753676 -0.635386 L 154.853802 3.829466 L 163.932204 8.830413 L 169.46142 5.496448 L 185.536452 5.257749 M 163.932204 8.830413 L 166.913989 13.631792 L 168.017484 14.222671 M 163.932204 8.830413 L 163.239584 8.846066 L 169.085762 8.736499 L 173.593658 0.730287 L 185.845587 -6.591131 M 169.085762 8.736499 L 171.774064 10.239131 L 182.26901 10.113911 M 146.753676 -0.635386 L 151.504184 -0.690169 L 162.8561 -0.823215 L 169.559247 -12.683834 L 177.03719 -17.035206 M 162.8561 -0.823215 L 170.568828 3.371633 L 185.708629 2.882495 M 162.8561 -0.823215 L 172.0832 -1.054088 L 175.980651 -1.151916 L 181.016817 -10.406407 L 191.335673 -16.804333 M 175.980651 -1.151916 L 184.980791 3.837292 L 188.295191 3.778596 M 175.980651 -1.151916 L 178.813739 -6.415041 L 182.72293 -13.677762 L 174.258886 -27.32667 L 174.110188 -32.585882 M 182.72293 -13.677762 L 184.276432 -14.663865 L 187.997795 -21.926586 M 182.72293 -13.677762 L 191.88742 -19.390895 L 200.813211 -24.959242 L 200.183201 -39.218594 L 206.941132 -52.370537 M 200.813211 -24.959242 L 210.552927 -25.370118 L 221.040047 -32.0537 M 175.980651 -1.151916 L 176.364136 -0.944521 L 188.408671 5.555145 L 192.521343 3.023366 L 202.554542 2.690753 M 188.408671 5.555145 L 196.770974 19.149269 L 196.857063 19.196226 M 188.408671 5.555145 L 196.066616 5.292967 L 208.428112 4.870352 L 213.789065 -5.256762 L 221.67397 -10.199013 M 208.428112 4.870352 L 222.40572 12.496992 L 233.640243 12.195683 M 175.980651 -1.151916 L 176.657619 -2.462806 L 179.592447 -8.160285 L 177.757201 -11.048156 L 177.299368 -20.357431 M 179.592447 -8.160285 L 185.391667 -11.838603 L 187.982142 -16.823898 M 179.592447 -8.160285 L 185.563844 -19.684377 L 185.68515 -19.919164 L 183.932079 -22.59964 L 183.646423 -27.608414 M 185.68515 -19.919164 L 196.477492 -27.009709 L 199.486669 -32.906757 M 185.68515 -19.919164 L 179.361574 -29.647141 L 175.37412 -35.782888 L 163.4235 -35.172444 L 154.122051 -39.883822 M 175.37412 -35.782888 L 175.151073 -39.891648 L 168.084007 -50.770078 M 175.37412 -35.782888 L 175.14716 -39.868169 L 174.497585 -51.611395 L 173.315827 -52.198361 L 171.50406 -54.917968 M 174.497585 -51.611395 L 176.368049 -55.367975 L 175.479774 -68.707747 M 185.68515 -19.919164 L 193.03396 -24.638367 L 195.30356 -26.097955 L 194.700942 -40.091216 L 199.737107 -49.682235 M 195.30356 -26.097955 L 198.692309 -26.266219 L 201.68192 -28.23451 M 195.30356 -26.097955 L 200.347552 -35.763323 L 200.797559 -36.628119 L 192.180903 -49.9405 L 191.910899 -55.618414 M 200.797559 -36.628119 L 211.495986 -43.370397 L 218.230438 -56.005811 M 185.68515 -19.919164 L 191.539154 -23.660091 L 201.494091 -30.01106 L 201.091041 -40.541223 L 206.135033 -50.093111 M 201.494091 -30.01106 L 212.95166 -30.421936 L 214.016025 -31.079337 M 201.494091 -30.01106 L 205.821984 -32.726754 L 205.113713 -32.28066 L 204.773273 -45.115642 L 208.913337 -52.887067 M 205.113713 -32.28066 L 204.084566 -32.245442 L 217.580863 -40.611659 M 205.113713 -32.28066 L 205.066755 -33.4272 L 204.863274 -38.518148 L 192.830478 -44.916074 L 189.003462 -50.993125 M 204.863274 -38.518148 L 204.738055 -38.279449 L 204.389788 -45.409125 M 204.863274 -38.518148 L 204.370223 -37.586829 L 204.342831 -37.539872 L 196.888367 -49.259619 L 196.156617 -64.876818 M 204.342831 -37.539872 L 217.126943 -45.600867 L 217.643472 -46.598708 M 205.113713 -32.28066 L 207.872451 -32.374575 L 223.873134 -32.914583 L 225.817947 -36.612466 L 227.516234 -37.696396 M 223.873134 -32.914583 L 233.468066 -27.925375 L 238.01118 -28.12103 M 223.873134 -32.914583 L 227.739281 -35.360273 L 238.821193 -42.36473 L 238.367272 -51.893139 L 245.868693 -66.148577 M 238.821193 -42.36473 L 238.605972 -42.356903 L 237.686392 -41.766025 M 175.980651 -1.151916 L 178.125033 -0.0210287 L 180.848553 1.411167 L 180.398546 1.688998 L 191.875681 1.411167 M 180.848553 1.411167 L 182.347272 3.919467 L 191.883507 9.221724 M 180.848553 1.411167 L 193.773536 8.48606 L 200.629295 12.238727 L 207.113309 8.2591 L 217.330424 7.903007 M 200.629295 12.238727 L 202.738458 15.643128 L 216.168232 22.721933 M 200.629295 12.238727 L 214.121679 3.907728 L 226.295346 -3.609345 L 225.782729 -18.682623 L 226.757092 -20.557 M 226.295346 -3.609345 L 226.991878 -3.636737 L 228.427988 -4.525012 M 226.295346 -3.609345 L 238.750757 -3.941959 L 243.591267 -4.067178 L 243.364307 -3.652389 L 255.780586 -11.145984 M 243.591267 -4.067178 L 254.583176 1.959002 L 257.193217 1.88074 M 200.629295 12.238727 L 208.271588 24.510222 L 210.012919 27.304178 L 214.152983 27.171133 L 215.679094 27.977232 M 210.012919 27.304178 L 210.39249 37.102591 L 215.941272 45.965772 M 210.012919 27.304178 L 214.982561 29.945524 L 215.252566 30.090308 L 224.730104 24.314567 L 236.230718 24.017171 M 215.252566 30.090308 L 221.360921 40.033506 L 230.012795 44.697927 M 200.629295 12.238727 L 206.213295 12.07829 L 208.842901 12.003941 L 214.516902 1.387689 L 222.444851 -3.57804 M 208.842901 12.003941 L 210.099007 12.669168 L 218.042609 12.434382 M 208.842901 12.003941 L 209.586391 11.980462 L 224.362272 11.538281 L 223.783133 12.630037 L 222.961381 13.15048 M 224.362272 11.538281 L 225.665336 12.246553 L 239.408158 11.823938 M 224.362272 11.538281 L 226.142735 8.294318 L 225.735772 9.033895 L 220.648736 0.702896 L 220.570474 -2.642809 M 225.735772 9.033895 L 231.687603 5.379055 L 237.776394 -5.976773 M 225.735772 9.033895 L 229.167564 6.873861 L 240.589916 -0.314511 L 240.081212 -14.507341 L 245.489122 -24.564018 M 240.589916 -0.314511 L 249.108744 -0.584516 L 249.535272 -0.850607 M 224.362272 11.538281 L 233.440674 16.280964 L 243.853445 21.720179 L 246.964362 19.771453 L 249.930495 19.64232 M 243.853445 21.720179 L 245.266075 23.997605 L 245.99 24.388916 M 243.853445 21.720179 L 259.783692 21.1293 L 271.785183 20.683206 L 272.423019 19.485796 L 284.307116 12.003941 M 271.785183 20.683206 L 271.976925 20.78886 L 285.67279 20.401462 M 175.980651 -1.151916 L 180.543331 -9.643352 L 184.937747 -17.82174 L 179.330269 -27.146667 L 179.298964 -28.606255 M 184.937747 -17.82174 L 193.264833 -22.967472 L 196.888367 -29.67062 M 184.937747 -17.82174 L 184.605133 -17.199556 L 186.162549 -20.099167 L 181.580304 -27.577109 L 181.224211 -38.854675 M 186.162549 -20.099167 L 198.707961 -27.882331 L 205.321107 -40.322089 M 186.162549 -20.099167 L 178.684607 -31.975438 L 172.396248 -41.965593 L 168.193574 -41.828634 L 157.542104 -47.416547 M 172.396248 -41.965593 L 172.282768 -45.953046 L 170.909268 -48.203081 M 172.396248 -41.965593 L 172.321899 -43.996494 L 171.770151 -59.069772 L 172.732775 -58.576721 L 170.435783 -62.192429 M 171.770151 -59.069772 L 176.947188 -69.075579 L 176.947188 -69.067753 M 186.162549 -20.099167 L 198.707961 -28.152335 L 208.635506 -34.522869 L 207.712014 -50.10485 L 209.758567 -54.166652 M 208.635506 -34.522869 L 212.04382 -34.659827 L 216.418671 -37.379435 M 208.635506 -34.522869 L 213.789065 -44.646069 L 220.36308 -57.5554 L 213.573844 -68.300785 L 213.440798 -71.196482 M 220.36308 -57.5554 L 231.503688 -64.649858 L 237.115079 -75.367851 M 186.162549 -20.099167 L 190.873926 -29.138437 L 194.215717 -35.552015 L 185.880805 -48.703959 L 185.806456 -50.226156 M 194.215717 -35.552015 L 206.373732 -43.601271 L 210.85815 -52.444886 M 194.215717 -35.552015 L 198.097517 -43.194308 L 202.358887 -51.591829 L 196.234879 -60.736754 L 195.182254 -75.794379 M 202.358887 -51.591829 L 208.435938 -55.747546 L 210.306402 -59.605867 M 202.358887 -51.591829 L 194.740073 -62.994615 L 186.311247 -75.614376 L 174.18845 -74.847408 L 162.723054 -80.415755 M 186.311247 -75.614376 L 185.779065 -84.117552 L 181.521607 -90.648523 M 186.311247 -75.614376 L 185.775151 -86.32063 L 185.152968 -98.819085 L 174.051491 -104.583087 L 170.964052 -109.482294 M 185.152968 -98.819085 L 184.597307 -97.746894 L 184.276432 -105.580929 M 202.358887 -51.591829 L 211.206416 -57.520182 L 214.242985 -59.551084 L 213.69515 -67.827299 L 217.494774 -75.49307 M 214.242985 -59.551084 L 224.440534 -60.286747 L 224.041398 -60.016743 M 214.242985 -59.551084 L 219.044364 -69.400367 L 219.967856 -71.286483 L 212.259041 -82.697095 L 211.546856 -93.528568 M 219.967856 -71.286483 L 230.501933 -78.302679 L 232.763707 -82.802749 M 202.358887 -51.591829 L 197.670988 -58.611939 L 195.577478 -61.746335 L 181.001164 -60.709362 L 171.057966 -65.581177 M 195.577478 -61.746335 L 194.959207 -71.000827 L 187.85301 -81.648383 M 195.577478 -61.746335 L 195.233124 -62.270691 L 189.367381 -71.110393 L 182.214227 -70.703431 L 175.706734 -74.045222 M 189.367381 -71.110393 L 188.964331 -78.529639 L 188.158232 -79.746615 M 189.367381 -71.110393 L 175.166726 -70.398208 L 167.086166 -69.991246 L 165.884843 -67.678601 L 152.486374 -59.038467 M 167.086166 -69.991246 L 167.704436 -69.674284 L 152.2555 -68.852532 M 167.086166 -69.991246 L 165.610925 -70.742562 L 151.942452 -77.700061 L 147.105855 -74.58523 L 141.165763 -74.299573 M 151.942452 -77.700061 L 144.323638 -89.33372 L 144.296246 -89.345459 M 189.367381 -71.110393 L 189.359555 -71.290396 L 188.616065 -83.792764 L 187.469526 -84.356251 L 187.989968 -83.561891 M 188.616065 -83.792764 L 189.011289 -84.598864 L 188.24432 -96.545571 M 188.616065 -83.792764 L 189.218683 -82.884924 L 184.483827 -90.049818 L 177.393282 -89.662421 L 175.503253 -90.640697 M 184.483827 -90.049818 L 183.98295 -98.740823 L 177.178061 -109.145767 M 189.367381 -71.110393 L 188.901722 -79.895312 L 188.545629 -86.574981 L 181.032469 -90.452868 L 180.120716 -91.857672 M 188.545629 -86.574981 L 192.576127 -94.45206 L 192.337427 -99.100828 M 188.545629 -86.574981 L 188.173884 -94.710325 L 187.95475 -99.515617 L 183.247286 -101.945655 L 180.692029 -105.976152 M 187.95475 -99.515617 L 188.803894 -101.123903 L 188.216928 -117.058063 M 187.95475 -99.515617 L 187.082128 -99.961711 L 182.758148 -102.180441 L 173.124085 -95.837299 L 161.975651 -95.089896 M 182.758148 -102.180441 L 176.238916 -112.115813 L 166.197891 -117.28111 M 182.758148 -102.180441 L 183.17685 -101.542605 L 179.799841 -106.707903 L 168.897933 -106.015283 L 155.753816 -112.667561 M 179.799841 -106.707903 L 179.373313 -112.921912 L 174.028012 -120.712903 M 187.95475 -99.515617 L 191.601764 -106.570944 L 198.911442 -120.732468 L 190.826969 -133.434405 L 190.541312 -141.374093 M 198.911442 -120.732468 L 201.893228 -122.63815 L 206.725912 -132.166559 M 198.911442 -120.732468 L 198.872311 -121.828138 L 198.344042 -136.044445 L 198.704048 -135.856616 L 190.963928 -147.901151 M 198.344042 -136.044445 L 202.754111 -144.438054 L 201.994968 -160.32917 M 202.358887 -51.591829 L 208.396807 -55.62624 L 218.53566 -62.399823 L 218.328266 -65.808137 L 221.920495 -73.055206 M 218.53566 -62.399823 L 223.348778 -62.720698 L 233.867203 -69.635153 M 218.53566 -62.399823 L 226.467522 -67.75295 L 236.997686 -74.86306 L 236.215065 -87.087598 L 239.815121 -94.217274 M 236.997686 -74.86306 L 252.039659 -75.888294 L 255.009705 -77.860498 M 236.997686 -74.86306 L 236.273762 -86.293238 L 236.117238 -88.770233 L 226.937095 -93.446392 L 222.229631 -100.642591 M 236.117238 -88.770233 L 235.624186 -87.768478 L 235.283746 -93.422914 M 236.117238 -88.770233 L 237.056383 -90.69548 L 237.111166 -90.805047 L 236.383329 -91.896803 L 235.620273 -103.569593 M 237.111166 -90.805047 L 249.484402 -99.038218 L 254.230997 -108.488365 M 236.997686 -74.86306 L 242.241246 -75.238718 L 241.509495 -75.183935 L 248.2596 -89.404156 L 258.339757 -96.361655 M 241.509495 -75.183935 L 248.862218 -71.638663 L 255.401015 -72.116061 M 241.509495 -75.183935 L 247.617851 -79.355304 L 248.044379 -79.644874 L 247.430022 -86.813681 L 247.825245 -87.651085 M 248.044379 -79.644874 L 248.697868 -79.695744 L 256.535815 -85.037131 M 236.997686 -74.86306 L 241.947763 -85.11148 L 247.711765 -97.038622 L 240.985139 -107.009212 L 240.225997 -117.515897 M 247.711765 -97.038622 L 256.723644 -103.041324 L 263.837668 -117.433722 M 247.711765 -97.038622 L 250.720943 -103.119586 L 257.287131 -116.388923 L 249.527446 -128.096931 L 249.077439 -136.521844 M 257.287131 -116.388923 L 270.333421 -125.056449 L 271.507352 -127.439529 M 257.287131 -116.388923 L 251.186602 -125.420367 L 246.068262 -133.003963 L 234.908088 -132.225256 L 235.628099 -131.869163 M 246.068262 -133.003963 L 244.925635 -146.723307 L 244.369974 -147.509841 M 246.068262 -133.003963 L 245.896085 -134.983994 L 245.152595 -143.498909 L 245.81391 -143.185861 L 240.022516 -151.724254 M 245.152595 -143.498909 L 248.983524 -151.763385 L 248.838739 -153.512543 M 257.287131 -116.388923 L 257.075824 -116.240225 L 260.84023 -118.842439 L 260.801099 -119.276794 L 262.855479 -123.78469 M 260.84023 -118.842439 L 271.773443 -119.691583 L 284.721905 -128.429544 M 260.84023 -118.842439 L 265.234646 -128.120409 L 265.222907 -128.093017 L 261.802854 -133.003963 L 261.309803 -138.979273 M 265.222907 -128.093017 L 268.826876 -130.710884 L 270.955605 -135.504437 M 202.358887 -51.591829 L 212.846007 -58.619765 L 223.407475 -65.69857 L 222.601375 -78.811383 L 222.534853 -78.674424 M 223.407475 -65.69857 L 232.912405 -66.269884 L 243.344741 -73.086511 M 223.407475 -65.69857 L 224.698799 -66.547714 L 226.377521 -67.643383 L 226.033168 -73.430864 L 227.011444 -75.352198 M 226.377521 -67.643383 L 240.926443 -68.570789 L 246.095653 -72.049538 M 226.377521 -67.643383 L 225.418811 -80.951851 L 224.550101 -93.008125 L 210.862063 -99.879536 L 202.812807 -111.916245 M 224.550101 -93.008125 L 230.78759 -105.483101 L 230.067578 -117.821119 M 224.550101 -93.008125 L 228.459292 -100.967379 L 228.181462 -100.407805 L 222.331371 -109.251421 L 222.104411 -113.516704 M 228.181462 -100.407805 L 236.097672 -105.807889 L 237.3303 -108.35532 M 226.377521 -67.643383 L 235.095917 -68.187305 L 245.46173 -68.829054 L 246.338266 -70.578211 L 252.755757 -74.776972 M 245.46173 -68.829054 L 247.347847 -67.839038 L 251.10834 -67.964258 M 245.46173 -68.829054 L 252.395751 -73.278253 L 261.29415 -78.991385 L 260.965449 -87.572823 L 261.208062 -88.042396 M 261.29415 -78.991385 L 276.578735 -79.613569 L 287.449339 -86.625852 M 226.377521 -67.643383 L 227.234491 -68.222523 L 235.475488 -73.767391 L 234.653737 -85.091915 L 238.261619 -92.679424 M 235.475488 -73.767391 L 248.838739 -74.589143 L 249.308312 -74.898278 M 235.475488 -73.767391 L 235.041134 -73.477822 L 245.430426 -80.380537 L 244.870852 -88.672405 L 249.159614 -97.382975 M 245.430426 -80.380537 L 258.965853 -81.233594 L 261.153278 -82.708834 M 245.430426 -80.380537 L 245.500861 -79.202693 L 245.140856 -85.264092 L 231.953695 -91.724627 L 229.355393 -95.579034 M 245.140856 -85.264092 L 249.644839 -94.264231 L 249.163527 -101.937829 M 245.140856 -85.264092 L 247.285237 -89.552854 L 252.669668 -100.317804 L 250.951816 -102.982628 L 250.509635 -113.684968 M 252.669668 -100.317804 L 262.198077 -106.355723 L 263.203745 -108.237927 M 245.430426 -80.380537 L 261.149365 -81.24142 L 260.484138 -81.206202 L 266.443795 -92.81247 L 269.785586 -95.003808 M 260.484138 -81.206202 L 267.038587 -77.813541 L 281.56403 -78.361376 M 260.484138 -81.206202 L 263.219397 -83.014057 L 262.522865 -82.55231 L 262.174599 -87.835001 L 261.744157 -86.954553 M 262.522865 -82.55231 L 265.547695 -82.763618 L 270.239507 -85.878449 M 245.430426 -80.380537 L 244.741719 -90.045905 L 244.518672 -93.156823 L 243.786922 -93.512915 L 240.096865 -99.026479 M 244.518672 -93.156823 L 249.738753 -103.56568 L 249.801363 -102.630448 M 244.518672 -93.156823 L 243.939533 -102.207833 L 243.372133 -111.086666 L 229.128433 -118.318083 L 221.470488 -129.951742 M 243.372133 -111.086666 L 244.272147 -112.886694 L 243.818227 -121.335086 M 243.372133 -111.086666 L 231.441078 -116.831103 L 223.556173 -120.626815 L 216.614326 -115.86848 L 205.763288 -115.093685 M 223.556173 -120.626815 L 219.267411 -126.868216 L 211.836426 -130.409575 M 223.556173 -120.626815 L 218.71175 -127.795622 L 216.618239 -130.890887 L 201.419742 -129.64652 L 188.197363 -135.89966 M 216.618239 -130.890887 L 216.485194 -132.444389 L 213.296014 -136.979677 M 243.372133 -111.086666 L 243.36822 -111.074927 L 242.988649 -110.296219 L 242.526902 -110.973186 L 242.037764 -117.081542 M 242.988649 -110.296219 L 252.024006 -116.25979 L 257.451482 -127.333875 M 242.988649 -110.296219 L 242.937778 -111.211886 L 242.6756 -115.91935 L 237.404649 -118.646784 L 236.011584 -120.845948 M 242.6756 -115.91935 L 245.403034 -121.307695 L 244.890417 -129.353037 M 243.372133 -111.086666 L 245.160421 -114.725853 L 246.549573 -117.562854 L 244.675196 -120.376376 L 244.651718 -120.779426 M 246.549573 -117.562854 L 255.631888 -123.710341 L 259.161508 -130.8948 M 246.549573 -117.562854 L 247.101321 -118.701567 L 253.240982 -131.34872 L 247.128713 -140.274511 L 246.549573 -147.952021 M 253.240982 -131.34872 L 261.622851 -137.163593 L 266.369446 -147.239837 M 253.240982 -131.34872 L 251.710958 -133.587016 L 247.520023 -139.726676 L 245.63782 -139.577978 L 232.748055 -145.75677 M 247.520023 -139.726676 L 246.647401 -154.01342 L 241.133837 -162.481378 M 247.520023 -139.726676 L 246.396962 -154.831259 L 245.465644 -167.380584 L 243.403438 -168.362773 L 238.273358 -175.87202 M 245.465644 -167.380584 L 248.885697 -174.565043 L 248.639171 -177.550742 M 253.240982 -131.34872 L 262.147207 -137.425771 L 268.873833 -142.011929 L 267.829034 -155.578662 L 269.899066 -159.945686 M 268.873833 -142.011929 L 269.492104 -142.0628 L 280.030093 -149.200302 M 268.873833 -142.011929 L 273.076507 -151.027721 L 279.122253 -163.987923 L 272.595195 -173.269806 L 271.515178 -185.279123 M 279.122253 -163.987923 L 285.050606 -168.112335 L 290.795043 -180.239045 M 245.430426 -80.380537 L 246.252177 -80.431408 L 252.051398 -80.791413 L 258.652805 -94.197709 L 264.890293 -98.376904 M 252.051398 -80.791413 L 260.261091 -76.694393 L 262.025901 -76.788308 M 252.051398 -80.791413 L 251.421388 -80.752282 L 258.128449 -81.182724 L 259.341511 -83.679284 L 268.408174 -89.885468 M 258.128449 -81.182724 L 261.732418 -79.445306 L 262.417211 -79.500089 M 258.128449 -81.182724 L 261.994596 -89.235892 L 265.109427 -95.723819 L 256.966257 -107.525742 L 256.449727 -114.017581 M 265.109427 -95.723819 L 264.784639 -95.504685 L 266.138573 -98.298642 M 265.109427 -95.723819 L 272.982593 -101.092598 L 276.046553 -103.182196 L 274.782621 -119.061573 L 278.633115 -127.30257 M 276.046553 -103.182196 L 280.386186 -103.596985 L 289.523284 -110.143608 M 258.128449 -81.182724 L 269.625149 -75.559593 L 281.031848 -69.979506 L 288.083262 -74.820016 L 293.686827 -75.285676 M 281.031848 -69.979506 L 284.984083 -64.141155 L 290.861566 -61.315894 M 281.031848 -69.979506 L 279.936179 -69.912984 L 285.704094 -70.269076 L 290.391993 -79.480523 L 298.711253 -84.798432 M 285.704094 -70.269076 L 298.308203 -64.019849 L 307.476606 -64.661598 M 258.128449 -81.182724 L 259.588037 -82.157087 L 264.264196 -85.283657 L 263.947235 -89.760248 L 266.811627 -95.551643 M 264.264196 -85.283657 L 263.62636 -85.2367 L 273.076507 -91.681582 M 264.264196 -85.283657 L 263.927669 -85.056697 L 274.015652 -91.787236 L 273.765213 -95.645557 L 280.178791 -108.402277 M 274.015652 -91.787236 L 275.549589 -91.908543 L 288.341527 -100.654331 M 274.015652 -91.787236 L 273.236944 -103.788727 L 272.798677 -110.484048 L 264.389416 -114.588895 L 261.133713 -119.492014 M 272.798677 -110.484048 L 274.837404 -114.628026 L 274.109567 -126.766475 M 272.798677 -110.484048 L 277.0757 -119.480275 L 278.50007 -122.481626 L 278.159629 -122.970764 L 278.136151 -123.275986 M 278.50007 -122.481626 L 279.951831 -123.483381 L 280.76967 -125.173842 M 274.015652 -91.787236 L 286.384975 -92.577683 L 288.008913 -92.679424 L 289.750244 -96.209044 L 289.272846 -95.895996 M 288.008913 -92.679424 L 290.978959 -91.192444 L 298.476467 -91.693322 M 288.008913 -92.679424 L 300.448671 -100.920422 L 302.788708 -102.473924 L 302.710446 -104.015687 L 308.396186 -115.214991 M 302.788708 -102.473924 L 312.806254 -103.04915 L 313.181912 -103.295676 M 175.980651 -1.151916 L 186.272116 4.158167 L 187.524309 4.803829 L 192.376558 1.626388 L 199.357536 1.227252 M 187.524309 4.803829 L 188.886069 6.956036 L 188.561282 6.78386 M 187.524309 4.803829 L 195.687044 9.00259 L 197.792295 10.082606 L 205.532415 5.066007 L 208.995512 4.909483 M 197.792295 10.082606 L 203.928042 19.701017 L 207.125048 21.352347 M 197.792295 10.082606 L 201.533222 7.656482 L 206.624171 4.353822 L 205.767201 -11.760341 L 212.650351 -25.291856 M 206.624171 4.353822 L 206.432429 4.365561 L 215.330828 -1.59801 M 206.624171 4.353822 L 216.250407 3.790335 L 226.350129 3.199456 L 231.769779 -7.878542 L 242.863429 -15.419094 M 226.350129 3.199456 L 239.642944 9.793037 L 250.059628 9.202158 M 197.792295 10.082606 L 202.190624 16.938365 L 210.564667 29.996394 L 212.290346 29.906393 L 214.978648 31.275979 M 210.564667 29.996394 L 210.639016 31.393372 L 211.965558 33.447752 M 210.564667 29.996394 L 221.22005 35.615612 L 233.417196 42.048755 L 239.556856 38.249131 L 253.346635 37.752167 M 233.417196 42.048755 L 238.758583 50.67715 L 249.6331 56.632895 M 197.792295 10.082606 L 208.208978 15.490517 L 207.868538 15.314427 L 218.340005 8.529104 L 227.684498 8.118228 M 207.868538 15.314427 L 214.399509 25.359365 L 218.574791 27.488094 M 207.868538 15.314427 L 216.806068 19.927977 L 217.784344 20.43668 L 224.902281 15.877914 L 233.757636 15.396602 M 217.784344 20.43668 L 217.291293 19.661886 L 226.436218 24.475004 M 217.784344 20.43668 L 220.953959 18.448823 L 232.771533 11.029578 L 232.732402 9.929995 L 235.768971 4.302952 M 232.771533 11.029578 L 241.286448 10.779139 L 244.260407 8.93998 M 232.771533 11.029578 L 236.226804 10.920011 L 248.193077 10.536527 L 251.343126 4.604261 L 256.829298 1.207686 M 248.193077 10.536527 L 250.13789 11.616543 L 258.0541 11.456106 M 217.784344 20.43668 L 219.748722 23.52412 L 224.683147 31.275979 L 231.906737 30.939452 L 235.628099 32.845134 M 224.683147 31.275979 L 225.133154 43.117033 L 229.41409 49.93366 M 224.683147 31.275979 L 229.245826 33.694278 L 233.921986 36.171272 L 236.203326 34.719511 L 236.837249 34.696032 M 233.921986 36.171272 L 233.272411 35.114734 L 240.218171 38.883054 M 217.784344 20.43668 L 223.55226 16.637056 L 233.34676 10.180434 L 232.748055 -1.81323 L 240.151648 -16.045191 M 233.34676 10.180434 L 240.899051 9.785211 L 245.043028 7.06169 M 233.34676 10.180434 L 236.528113 8.129967 L 245.105638 2.592925 L 244.827808 -4.255007 L 246.201307 -6.923745 M 245.105638 2.592925 L 244.006056 2.643795 L 247.015233 0.679417 M 245.105638 2.592925 L 244.596934 -7.694626 L 244.624326 -7.182009 L 231.073246 -14.135596 L 229.668442 -16.276064 M 244.624326 -7.182009 L 248.686128 -14.933869 L 248.333949 -25.784907 M 244.624326 -7.182009 L 246.361744 -10.547279 L 246.111306 -10.062054 L 246.146524 -10.003358 L 245.731735 -19.668725 M 246.111306 -10.062054 L 257.181478 -16.882595 L 257.208869 -16.937378 M 245.105638 2.592925 L 245.00781 2.600751 L 257.447569 1.775086 L 259.431513 -2.271064 L 272.129536 -10.695977 M 257.447569 1.775086 L 264.737682 5.351663 L 267.739033 5.128617 M 257.447569 1.775086 L 266.956412 -4.485881 L 275.260019 -9.9564 L 274.911753 -15.239091 L 281.297939 -28.105378 M 275.260019 -9.9564 L 289.640677 -10.735108 L 302.076523 -18.745232 M 245.105638 2.592925 L 254.109691 2.072482 L 253.111849 2.127266 L 254.825789 -1.265396 L 261.571981 -5.651986 M 253.111849 2.127266 L 267.038587 9.350856 L 266.079877 9.386074 M 253.111849 2.127266 L 268.897312 1.282035 L 281.771425 0.589416 L 282.182301 -0.208858 L 285.516265 -2.376717 M 281.771425 0.589416 L 282.604916 1.02377 L 284.655383 0.949421 M 281.771425 0.589416 L 287.08542 -9.537698 L 289.499806 -14.143422 L 286.8702 -18.220877 L 286.271495 -31.247601 M 289.499806 -14.143422 L 289.214149 -13.963419 L 296.402521 -27.741459 M 289.499806 -14.143422 L 293.902048 -16.898247 L 295.197285 -17.70826 L 294.915542 -27.299278 L 297.247752 -31.591954 M 295.197285 -17.70826 L 302.338701 -17.98609 L 307.93444 -21.562668 M 281.771425 0.589416 L 284.75321 2.139005 L 299.071259 9.581729 L 305.574838 5.562971 L 307.574434 5.519927 M 299.071259 9.581729 L 306.161803 21.054951 L 316.159785 26.329815 M 299.071259 9.581729 L 303.277846 9.429118 L 313.635833 9.05346 L 319.873321 -2.811072 L 320.820292 -3.41369 M 313.635833 9.05346 L 319.215919 12.109594 L 332.211338 11.741763 M 217.784344 20.43668 L 220.531343 24.572832 L 223.920092 29.667693 L 236.179847 28.787245 L 237.568999 29.464212 M 223.920092 29.667693 L 224.217487 34.496464 L 229.132346 42.01745 M 223.920092 29.667693 L 230.040187 38.988708 L 237.979875 51.076287 L 238.512057 51.044982 L 238.887715 51.232811 M 237.979875 51.076287 L 238.273358 56.687678 L 242.417335 63.042559 M 237.979875 51.076287 L 237.338126 51.123244 L 239.239895 50.986285 L 243.931707 41.297439 L 255.510582 33.353837 M 239.239895 50.986285 L 242.879082 52.774574 L 250.580071 52.254131 M 239.239895 50.986285 L 249.6331 55.940275 L 251.890961 57.020292 L 257.14626 53.424149 L 261.125887 53.126753 M 251.890961 57.020292 L 258.433671 66.552614 L 267.578596 70.868768 M 237.979875 51.076287 L 238.739017 65.413901 L 238.965977 69.714402 L 244.342583 72.430096 L 248.862218 79.458032 M 238.965977 69.714402 L 234.904175 77.740179 L 235.416792 88.70861 M 238.965977 69.714402 L 246.514355 81.680675 L 246.107393 81.0311 L 256.97017 80.608484 L 262.366341 83.480703 M 246.107393 81.0311 L 246.115219 81.312843 L 253.057066 92.273448 M 237.979875 51.076287 L 251.472259 57.924219 L 253.413158 58.910321 L 252.92402 59.231196 L 260.640662 58.82032 M 253.413158 58.910321 L 258.660631 66.904793 L 265.438128 70.297455 M 253.413158 58.910321 L 262.812435 63.54735 L 267.015109 65.621295 L 279.97531 56.754201 L 286.975853 56.253323 M 267.015109 65.621295 L 269.042097 68.626559 L 276.895697 72.512272 M 267.015109 65.621295 L 273.776953 60.980353 L 278.617463 57.662041 L 277.721362 46.431432 L 277.46701 46.979266 M 278.617463 57.662041 L 290.184599 56.781593 L 303.125235 47.875367 M 278.617463 57.662041 L 285.985838 57.137685 L 285.66105 57.161164 L 288.075436 52.246305 L 289.386326 51.354117 M 285.66105 57.161164 L 295.2912 61.935151 L 300.370409 61.594711 M 267.015109 65.621295 L 269.683846 69.463963 L 278.457025 82.079811 L 283.649715 81.641544 L 283.34058 81.496759 M 278.457025 82.079811 L 279.23182 91.760831 L 284.385378 99.207469 M 278.457025 82.079811 L 277.674405 81.708067 L 289.816767 87.507287 L 294.688582 84.126365 L 304.651345 83.371136 M 289.816767 87.507287 L 296.731222 97.427006 L 309.769686 103.461013 M 217.784344 20.43668 L 225.097936 19.990586 L 229.86801 19.701017 L 237.052469 5.762539 L 236.038975 6.412115 M 229.86801 19.701017 L 232.795012 21.187996 L 247.476979 20.49929 M 229.86801 19.701017 L 243.724312 19.031876 L 251.194428 18.67187 L 254.771005 11.686979 L 257.384959 9.988692 M 251.194428 18.67187 L 253.420984 19.837975 L 267.253808 19.25101 M 251.194428 18.67187 L 251.844003 17.419677 L 255.729716 9.922169 L 251.56226 3.30511 L 250.900945 -11.235985 M 255.729716 9.922169 L 267.159893 2.679013 L 274.696532 -11.599904 M 255.729716 9.922169 L 265.187689 3.829466 L 276.007422 -3.143686 L 275.623938 -10.105098 L 275.158279 -9.169866 M 276.007422 -3.143686 L 288.560661 -3.711086 L 297.862109 -9.635526 M 251.194428 18.67187 L 252.744017 19.458404 L 254.082299 20.139284 L 261.802854 15.009205 L 273.201726 14.359629 M 254.082299 20.139284 L 255.322753 22.005835 L 268.228171 28.321585 M 254.082299 20.139284 L 256.719731 19.986673 L 258.144101 19.904498 L 261.998509 12.195683 L 262.178512 12.074377 M 258.144101 19.904498 L 262.89461 22.385406 L 279.020512 21.735831 M 251.194428 18.67187 L 254.997965 18.480128 L 266.08379 17.916641 L 268.623394 13.064392 L 281.650118 4.702088 M 266.08379 17.916641 L 278.320067 24.251957 L 290.579822 23.715862 M 266.08379 17.916641 L 277.400487 17.439242 L 282.691004 17.216196 L 285.422351 12.000028 L 295.572943 5.63732 M 282.691004 17.216196 L 294.903803 23.563251 L 300.703023 23.269768 M 282.691004 17.216196 L 287.590211 7.617351 L 289.765897 3.35598 L 290.403733 4.322517 L 290.356775 3.633811 M 289.765897 3.35598 L 300.143449 -3.347167 L 306.474852 -15.571705 M 289.765897 3.35598 L 294.152487 0.530719 L 302.812186 -5.045455 L 302.146959 -15.493443 L 303.919595 -19.12089 M 302.812186 -5.045455 L 314.743241 -5.542419 L 325.919067 -12.617311 M 282.691004 17.216196 L 296.335999 24.189347 L 303.42263 27.808969 L 312.700601 21.64583 L 323.899905 20.95321 M 303.42263 27.808969 L 308.951847 36.402146 L 315.228466 39.563934 M 303.42263 27.808969 L 312.532337 27.296352 L 311.972763 27.327657 L 311.5658 28.153322 L 320.319415 22.311057 M 311.972763 27.327657 L 312.802341 27.730707 L 328.65824 26.756344 M 282.691004 17.216196 L 285.324523 12.058724 L 292.047236 -1.089306 L 286.306713 -9.960313 L 285.61018 -24.184447 M 292.047236 -1.089306 L 297.858196 -4.959366 L 302.205655 -13.877331 M 292.047236 -1.089306 L 298.257333 -13.48602 L 298.679948 -14.323425 L 290.767651 -26.270132 L 290.290253 -34.27243 M 298.679948 -14.323425 L 299.685616 -14.992566 L 306.811379 -29.349745 M 298.679948 -14.323425 L 298.476467 -14.636473 L 297.713411 -15.81823 L 286.58063 -15.26257 L 273.831736 -21.903108 M 297.713411 -15.81823 L 297.247752 -24.669672 L 291.303747 -33.693291 M 297.713411 -15.81823 L 297.122533 -29.071915 L 296.9934 -31.873697 L 288.79936 -36.107676 L 287.277162 -38.49467 M 296.9934 -31.873697 L 298.182984 -34.15895 L 298.233854 -32.945888 M 298.679948 -14.323425 L 306.975729 -19.680464 L 315.608037 -25.256638 L 315.467165 -28.207119 L 315.130638 -27.545804 M 315.608037 -25.256638 L 320.882902 -25.495337 L 331.358282 -32.108483 M 315.608037 -25.256638 L 316.754577 -27.534065 L 319.309834 -32.613274 L 318.00677 -34.577652 L 317.650678 -40.811227 M 319.309834 -32.613274 L 319.861581 -32.985019 L 321.720306 -36.792469 M 298.679948 -14.323425 L 297.811239 -13.752111 L 297.596018 -13.607327 L 297.173403 -20.118732 L 303.508719 -33.063281 M 297.596018 -13.607327 L 297.670367 -13.61124 L 298.75821 -14.346903 M 297.596018 -13.607327 L 297.866022 -13.787329 L 298.977344 -14.530819 L 298.687774 -18.369574 L 305.293094 -32.10457 M 298.977344 -14.530819 L 307.762263 -15.066914 L 316.926753 -21.23788 M 298.977344 -14.530819 L 298.061678 -30.539329 L 298.065591 -30.421936 L 297.012966 -30.938465 L 296.242084 -32.096744 M 298.065591 -30.421936 L 302.506964 -39.625557 L 302.424789 -40.65079 M 298.065591 -30.421936 L 302.146959 -38.811631 L 307.398344 -49.615712 L 299.990838 -60.513707 L 299.474308 -68.191218 M 307.398344 -49.615712 L 317.357195 -56.354077 L 324.330346 -70.55082 M 298.977344 -14.530819 L 310.466218 -14.992566 L 316.234134 -15.223439 L 320.213761 -22.799208 L 322.264227 -24.078794 M 316.234134 -15.223439 L 319.622882 -13.478194 L 330.039566 -13.93994 M 316.234134 -15.223439 L 324.702091 -20.682219 L 337.19272 -28.731475 L 336.864019 -36.796382 L 337.231851 -37.489002 M 337.19272 -28.731475 L 346.666345 -29.009305 L 351.823817 -32.214137 M 282.691004 17.216196 L 287.860215 19.849715 L 296.606003 24.30674 L 309.640553 15.983568 L 322.111616 15.408341 M 296.606003 24.30674 L 299.376481 28.509414 L 298.351247 28.004624 M 296.606003 24.30674 L 305.011351 28.560285 L 304.835261 28.470283 L 314.688458 22.095837 L 326.991257 21.508871 M 304.835261 28.470283 L 307.680088 32.641652 L 315.85065 36.488234 M 304.835261 28.470283 L 309.930123 25.038491 L 322.405099 16.637056 L 321.579434 6.756468 L 326.822994 -4.137614 M 322.405099 16.637056 L 330.845665 16.108787 L 334.7979 13.467442 M 322.405099 16.637056 L 322.925542 16.597925 L 337.353157 15.568779 L 343.101508 3.743378 L 354.347769 -3.750217 M 337.353157 15.568779 L 343.027159 18.296212 L 349.628565 17.771856 M 304.835261 28.470283 L 306.603984 31.076411 L 314.625848 42.909638 L 321.58726 42.36963 L 329.311728 46.083166 M 314.625848 42.909638 L 315.580645 55.443311 L 323.555552 66.998708 M 314.625848 42.909638 L 323.813817 47.354924 L 324.177735 47.531014 L 336.954021 39.035665 L 344.913275 38.581745 M 324.177735 47.531014 L 325.707759 49.800615 L 328.450845 51.138896 M 304.835261 28.470283 L 318.679824 27.480268 L 328.799112 26.756344 L 328.853895 26.646777 L 337.259243 20.878861 M 328.799112 26.756344 L 335.874004 30.156831 L 350.415099 29.080728 M 328.799112 26.756344 L 342.792372 25.770241 L 348.243327 25.386757 L 353.979937 13.733533 L 366.263172 5.437752 M 348.243327 25.386757 L 350.97076 26.721126 L 363.934875 25.887635 M 348.243327 25.386757 L 354.621686 12.093942 L 355.056041 11.186102 L 355.337785 11.589152 L 354.308638 -1.47279 M 355.056041 11.186102 L 366.697526 3.219022 L 366.603612 3.422503 M 355.056041 11.186102 L 358.284352 8.943893 L 364.34575 4.737306 L 363.469215 -5.918077 L 363.457476 -5.886772 M 364.34575 4.737306 L 377.024208 3.766856 L 389.233093 -4.642405 M 348.243327 25.386757 L 356.406062 29.276383 L 357.094768 29.605084 L 366.282737 23.422379 L 373.138496 22.917588 M 357.094768 29.605084 L 357.826519 30.689013 L 360.839609 32.17208 M 357.094768 29.605084 L 366.094908 28.990726 L 370.790633 28.669852 L 375.9168 18.296212 L 376.898989 17.642724 M 370.790633 28.669852 L 374.813304 30.587273 L 374.930697 30.579447 " transform="matrix(0.998248, 0, 0, -0.998248, 275.210411, 113.619633)"/>
</g>
</svg>
